<svg width="233" height="244" viewBox="0 0 233 244" fill="none" xmlns="http://www.w3.org/2000/svg">
<path d="M118.288 243.619C180.536 243.619 230.998 229.974 230.998 213.142C230.998 196.311 180.536 182.666 118.288 182.666C56.0395 182.666 5.57739 196.311 5.57739 213.142C5.57739 229.974 56.0395 243.619 118.288 243.619Z" fill="#263238"/>
<path d="M181.961 79.7648C181.961 79.7648 177.448 76.933 172.275 87.6847C167.102 98.4365 165.193 104.623 165.193 104.623C165.193 104.623 163.813 106.88 162.25 105.46C160.686 104.041 158.496 99.9603 155.912 100.765C153.231 101.595 152.413 104.63 153.035 109.038C153.656 113.446 154.644 123.164 154.735 124.041C154.827 124.917 154.356 126.192 153.133 125.394C151.91 124.596 144.827 117.062 141.452 120.64C138.078 124.217 141.812 136.225 142.198 137.546C142.584 138.867 142.335 139.436 141.714 139.782C141.093 140.129 138.941 137.369 136.842 135.309C134.742 133.249 131.937 131.228 130.164 133.452C128.392 135.675 128.013 144.759 136.985 159.291L141.563 165.753L149.51 165.099C166.415 162.725 173.165 156.636 173.747 153.85C174.329 151.064 170.987 150.201 168.057 149.926C165.127 149.651 161.635 149.736 161.517 149.036C161.399 148.337 161.667 147.781 162.93 147.231C164.192 146.682 175.813 141.895 176.415 137.009C177.017 132.124 166.684 131.49 165.297 131.058C163.911 130.626 164.597 129.449 165.297 128.965C165.997 128.481 174.139 123.033 177.926 120.692C181.713 118.351 183.524 115.787 182.458 113.191C181.425 110.692 176.886 111.608 174.793 111.314C172.7 111.019 173.557 108.508 173.557 108.508C173.557 108.508 177.095 103.093 182.059 92.2497C187.023 81.4063 181.837 79.719 181.837 79.719" fill="#74A5F3"/>
<path d="M177.311 89.3917C177.287 89.4725 177.256 89.5513 177.22 89.6271L176.932 90.2811C176.664 90.8894 176.278 91.7526 175.781 92.8579C174.78 95.0946 173.309 98.3188 171.464 102.295C167.789 110.254 162.609 121.202 156.847 133.269C151.086 145.335 145.913 156.283 142.146 164.242C140.288 168.166 138.777 171.397 137.731 173.633L136.521 176.184L136.201 176.838C136.165 176.914 136.126 176.988 136.083 177.06C136.1 176.978 136.128 176.899 136.168 176.825L136.462 176.171L137.607 173.594C138.607 171.357 140.085 168.133 141.923 164.15C145.599 156.198 150.778 145.25 156.54 133.177C162.302 121.104 167.475 110.182 171.249 102.256C173.106 98.3319 174.61 95.0946 175.663 92.8644L176.866 90.3073L177.193 89.6533C177.22 89.5611 177.26 89.473 177.311 89.3917Z" fill="#263238"/>
<path d="M158.751 106.598C159.048 107.246 159.291 107.918 159.477 108.606C159.869 109.862 160.366 111.615 160.876 113.557C161.386 115.499 161.798 117.167 162.145 118.54C162.353 119.22 162.517 119.913 162.635 120.614C162.329 119.97 162.088 119.298 161.916 118.606C161.53 117.344 161.053 115.584 160.549 113.642L159.241 108.672C159.024 107.994 158.86 107.301 158.751 106.598Z" fill="#263238"/>
<path d="M163.394 120.738C163.394 120.653 166.926 119.43 171.353 118.076C175.781 116.722 179.378 115.643 179.41 115.728C179.443 115.813 175.872 117.036 171.451 118.397C167.03 119.757 163.394 120.829 163.394 120.738Z" fill="#263238"/>
<path d="M153.682 138.873C154.405 138.789 155.132 138.754 155.86 138.769C157.168 138.736 159.051 138.684 161.092 138.553C163.132 138.422 164.983 138.259 166.324 138.134C167.043 138.032 167.769 137.977 168.495 137.971C167.794 138.168 167.076 138.302 166.35 138.37C165.042 138.559 163.172 138.769 161.118 138.893C159.065 139.017 157.194 139.037 155.886 139.011C155.149 139.033 154.411 138.987 153.682 138.873Z" fill="#263238"/>
<path d="M146.691 127.003C147.118 127.522 147.501 128.075 147.835 128.658C148.489 129.704 149.411 131.163 150.392 132.785C151.373 134.406 152.25 135.878 152.865 136.957C153.228 137.523 153.543 138.118 153.806 138.736C153.377 138.219 152.994 137.666 152.662 137.081C152.008 136.035 151.086 134.577 150.098 132.961C149.111 131.346 148.247 129.861 147.626 128.782C147.262 128.218 146.949 127.623 146.691 127.003Z" fill="#263238"/>
<path d="M136.103 141.928C136.266 142.091 136.407 142.276 136.521 142.477C136.776 142.843 137.129 143.386 137.561 144.053C138.431 145.361 139.602 147.251 140.883 149.285C142.165 151.319 143.303 153.209 144.114 154.602C144.52 155.289 144.847 155.845 145.062 156.23C145.188 156.425 145.291 156.634 145.37 156.852C145.206 156.688 145.065 156.504 144.951 156.302C144.696 155.936 144.343 155.393 143.911 154.726C143.048 153.418 141.871 151.535 140.589 149.494C139.307 147.454 138.169 145.57 137.358 144.177C136.953 143.523 136.626 142.935 136.41 142.549C136.283 142.355 136.18 142.146 136.103 141.928Z" fill="#263238"/>
<path d="M145.252 156.459C145.492 156.404 145.738 156.375 145.985 156.374L148.005 156.244C149.706 156.139 152.054 155.989 154.643 155.76C157.233 155.531 159.568 155.269 161.262 155.106L163.27 154.883C163.513 154.836 163.761 154.821 164.009 154.837C163.777 154.927 163.536 154.986 163.289 155.014C162.818 155.099 162.138 155.217 161.327 155.348C159.64 155.603 157.299 155.904 154.702 156.132C152.106 156.361 149.752 156.472 148.045 156.518C147.194 156.518 146.501 156.518 146.024 156.518C145.765 156.534 145.505 156.514 145.252 156.459Z" fill="#263238"/>
<path opacity="0.2" d="M181.961 79.7648C181.961 79.7648 177.448 76.933 172.275 87.6847C167.102 98.4365 165.193 104.623 165.193 104.623C165.193 104.623 163.813 106.88 162.25 105.46C160.686 104.041 158.496 99.9603 155.912 100.765C153.231 101.595 152.413 104.63 153.035 109.038C153.656 113.446 154.644 123.164 154.735 124.041C154.827 124.917 154.356 126.192 153.133 125.394C151.91 124.596 144.827 117.062 141.452 120.64C138.078 124.217 141.812 136.225 142.198 137.546C142.584 138.867 142.335 139.436 141.714 139.782C141.093 140.129 138.941 137.369 136.842 135.309C134.742 133.249 131.937 131.228 130.164 133.452C128.392 135.675 128.013 144.759 136.985 159.291L141.563 165.753L149.51 165.099C166.415 162.725 173.165 156.636 173.747 153.85C174.329 151.064 170.987 150.201 168.057 149.926C165.127 149.651 161.635 149.736 161.517 149.036C161.399 148.337 161.667 147.781 162.93 147.231C164.192 146.682 175.813 141.895 176.415 137.009C177.017 132.124 166.684 131.49 165.297 131.058C163.911 130.626 164.597 129.449 165.297 128.965C165.997 128.481 174.139 123.033 177.926 120.692C181.713 118.351 183.524 115.787 182.458 113.191C181.425 110.692 176.886 111.608 174.793 111.314C172.7 111.019 173.557 108.508 173.557 108.508C173.557 108.508 177.095 103.093 182.059 92.2497C187.023 81.4063 181.837 79.719 181.837 79.719" fill="#ACC9F8"/>
<path opacity="0.2" d="M181.961 79.7648C181.961 79.7648 177.448 76.933 172.275 87.6847C167.102 98.4365 165.192 104.623 165.192 104.623C165.192 104.623 163.813 106.88 162.249 105.46C160.686 104.041 158.496 99.9603 155.912 100.765C153.231 101.595 152.413 104.63 153.035 109.038C153.656 113.446 154.643 123.164 154.735 124.041C154.827 124.917 154.356 126.192 153.133 125.394C151.91 124.596 144.827 117.062 141.452 120.64C138.078 124.217 141.812 136.225 142.198 137.546C142.584 138.867 142.335 139.436 141.714 139.782C141.093 140.129 138.941 137.369 136.842 135.309C134.742 133.249 131.937 131.228 130.164 133.452C128.392 135.675 128.013 144.759 136.985 159.291L141.563 165.753L149.51 165.099C166.415 162.725 173.165 156.636 173.747 153.85C174.329 151.064 170.987 150.201 168.057 149.926C165.127 149.651 161.635 149.736 161.517 149.036C161.399 148.337 161.667 147.781 162.93 147.231C164.192 146.682 175.813 141.895 176.415 137.009C177.017 132.124 166.684 131.49 165.297 131.058C163.911 130.626 164.597 129.449 165.297 128.965C165.997 128.481 174.139 123.033 177.926 120.692C181.713 118.351 183.524 115.787 182.458 113.191C181.425 110.692 176.886 111.608 174.793 111.314C172.7 111.019 173.557 108.508 173.557 108.508C173.557 108.508 177.095 103.093 182.059 92.2497C187.023 81.4063 181.837 79.719 181.837 79.719" fill="#ACC9F8"/>
<path d="M76.581 74.828C76.581 74.828 71.3877 76.0165 75.3324 87.2771C79.2771 98.5377 82.3015 104.263 82.3015 104.263C82.3015 104.263 82.9211 106.834 80.8124 106.936C78.7036 107.037 74.2688 105.701 73.0109 108.096C71.7022 110.58 73.2699 113.304 76.8261 115.981C80.3823 118.659 87.9526 124.832 88.637 125.387C89.3214 125.942 89.8902 127.177 88.4613 127.478C87.0323 127.778 76.6966 127.459 76.84 132.375C76.9833 137.291 88.1144 143.141 89.3214 143.802C90.5284 144.463 90.755 145.041 90.5608 145.726C90.3666 146.41 86.8936 145.98 83.9524 146.008C81.0112 146.036 77.5984 146.591 77.9175 149.416C78.2366 152.242 84.3917 158.933 101.012 162.864L108.818 164.196L113.975 158.115C124.25 144.482 124.717 135.404 123.159 133.022C121.6 130.641 118.627 132.393 116.361 134.271C114.095 136.149 111.685 138.678 111.107 138.267C110.529 137.855 110.326 137.272 110.83 135.991C111.334 134.71 116.167 123.108 113.137 119.228C110.108 115.348 102.353 122.206 101.068 122.881C99.782 123.556 99.4352 122.238 99.5878 121.401C99.7404 120.564 101.646 110.954 102.668 106.621C103.69 102.288 103.158 99.1944 100.568 98.1122C98.0709 97.0764 95.509 100.933 93.821 102.205C92.1331 103.477 90.9631 101.095 90.9631 101.095C90.9631 101.095 89.6359 94.7641 85.4785 83.5867C81.3211 72.4094 76.4608 74.8835 76.4608 74.8835" fill="#74A5F3"/>
<path d="M80.1003 84.9232C80.1405 84.9974 80.1745 85.0747 80.2021 85.1544L80.461 85.8203C80.7015 86.44 81.0391 87.3233 81.4692 88.4563C82.3432 90.7454 83.5826 94.0658 85.0901 98.1816C88.1192 106.409 92.198 117.812 96.656 130.419C101.114 143.025 105.197 154.424 108.162 162.716C109.623 166.804 110.839 170.157 111.681 172.478L112.629 175.138L112.865 175.827C112.894 175.905 112.918 175.986 112.939 176.067C112.892 175.997 112.857 175.921 112.832 175.84L112.578 175.17L111.565 172.539C110.691 170.249 109.457 166.924 107.94 162.809C104.915 154.586 100.836 143.182 96.3739 130.571C91.9112 117.96 87.8463 106.58 84.9098 98.3064C83.4485 94.2184 82.223 90.8656 81.3906 88.5441L80.4333 85.8851L80.2021 85.1914C80.1559 85.1071 80.1217 85.0169 80.1003 84.9232Z" fill="#263238"/>
<path d="M79.1432 110.215C79.8115 110.463 80.4581 110.766 81.0762 111.121C82.2416 111.731 83.8324 112.619 85.5666 113.632C87.3007 114.645 88.7713 115.533 89.9876 116.259C90.6153 116.592 91.2208 116.966 91.8004 117.378C91.1286 117.14 90.4826 116.834 89.8719 116.467C88.7066 115.847 87.125 114.941 85.3955 113.923L80.956 111.334C80.3238 111.008 79.7177 110.634 79.1432 110.215Z" fill="#263238"/>
<path d="M92.4244 116.929C92.3643 116.869 93.9968 113.507 96.1703 109.419C98.3438 105.331 100.124 102.025 100.207 102.062C100.291 102.099 98.6305 105.488 96.4662 109.576C94.302 113.664 92.4892 116.994 92.4244 116.929Z" fill="#263238"/>
<path d="M98.3807 136.62C98.8322 136.05 99.322 135.51 99.8467 135.006C100.748 134.058 102.043 132.689 103.394 131.154C104.744 129.619 105.937 128.194 106.797 127.159C107.233 126.577 107.708 126.026 108.217 125.508C107.861 126.143 107.447 126.745 106.982 127.307C106.191 128.366 105.017 129.836 103.653 131.376C102.288 132.916 100.98 134.252 100.036 135.159C99.5305 135.696 98.9763 136.185 98.3807 136.62Z" fill="#263238"/>
<path d="M85.0438 133.17C85.7125 133.235 86.3746 133.356 87.0231 133.531C88.2254 133.809 89.9087 134.188 91.7493 134.641C93.5898 135.094 95.25 135.515 96.4478 135.843C97.1044 135.987 97.7479 136.185 98.3715 136.435C97.7024 136.374 97.04 136.253 96.3923 136.075C95.1899 135.797 93.5066 135.418 91.6661 134.974C89.8255 134.53 88.1653 134.091 86.963 133.767C86.3067 133.626 85.6643 133.426 85.0438 133.17Z" fill="#263238"/>
<path d="M88.11 151.21C88.3412 151.21 88.5714 151.242 88.7944 151.303C89.2337 151.382 89.8673 151.516 90.6442 151.682C92.1841 151.992 94.3484 152.501 96.693 153.033C99.0376 153.564 101.179 154.096 102.737 154.508C103.509 154.707 104.134 154.868 104.559 154.989C104.786 155.038 105.006 155.112 105.216 155.211C104.985 155.211 104.754 155.18 104.531 155.118C104.092 155.04 103.459 154.905 102.682 154.739C101.146 154.424 98.9821 153.925 96.6329 153.389C94.2836 152.852 92.1471 152.325 90.5887 151.913C89.8395 151.738 89.1921 151.553 88.7666 151.432C88.5396 151.385 88.3192 151.311 88.11 151.21Z" fill="#263238"/>
<path d="M104.855 155.016C104.986 154.807 105.139 154.613 105.313 154.438L106.649 152.917C107.778 151.641 109.332 149.874 111.001 147.881C112.67 145.888 114.136 144.052 115.219 142.738L116.481 141.161C116.62 140.956 116.785 140.77 116.971 140.607C116.871 140.833 116.742 141.046 116.587 141.24C116.315 141.633 115.917 142.197 115.436 142.863C114.423 144.237 112.98 146.105 111.306 148.103C109.632 150.101 108.046 151.844 106.871 153.083C106.27 153.685 105.78 154.175 105.442 154.512C105.27 154.706 105.073 154.876 104.855 155.016Z" fill="#263238"/>
<path opacity="0.2" d="M76.581 74.828C76.581 74.828 71.3877 76.0165 75.3324 87.2771C79.2771 98.5377 82.3015 104.263 82.3015 104.263C82.3015 104.263 82.9211 106.834 80.8124 106.936C78.7036 107.037 74.2688 105.701 73.0109 108.096C71.7022 110.58 73.2699 113.304 76.8261 115.981C80.3823 118.659 87.9526 124.832 88.637 125.387C89.3214 125.942 89.8902 127.177 88.4613 127.478C87.0323 127.778 76.6966 127.459 76.84 132.375C76.9833 137.291 88.1144 143.141 89.3214 143.802C90.5284 144.463 90.755 145.041 90.5608 145.726C90.3666 146.41 86.8936 145.98 83.9524 146.008C81.0112 146.036 77.5984 146.591 77.9175 149.416C78.2366 152.242 84.3917 158.933 101.012 162.864L108.818 164.196L113.975 158.115C124.25 144.482 124.717 135.404 123.159 133.022C121.6 130.641 118.627 132.393 116.361 134.271C114.095 136.149 111.685 138.678 111.107 138.267C110.529 137.855 110.326 137.272 110.83 135.991C111.334 134.71 116.167 123.108 113.137 119.228C110.108 115.348 102.353 122.206 101.068 122.881C99.782 123.556 99.4352 122.238 99.5878 121.401C99.7404 120.564 101.646 110.954 102.668 106.621C103.69 102.288 103.158 99.1944 100.568 98.1122C98.0709 97.0764 95.509 100.933 93.821 102.205C92.1331 103.477 90.9631 101.095 90.9631 101.095C90.9631 101.095 89.6359 94.7641 85.4785 83.5867C81.3211 72.4094 76.4608 74.8835 76.4608 74.8835" fill="#ACC9F8"/>
<path opacity="0.2" d="M76.581 74.828C76.581 74.828 71.3877 76.0165 75.3324 87.2771C79.2771 98.5377 82.3015 104.263 82.3015 104.263C82.3015 104.263 82.9211 106.834 80.8124 106.936C78.7036 107.037 74.2688 105.701 73.0109 108.096C71.7022 110.58 73.2699 113.304 76.8261 115.981C80.3823 118.659 87.9526 124.832 88.637 125.387C89.3214 125.942 89.8902 127.177 88.4613 127.478C87.0323 127.778 76.6966 127.459 76.84 132.375C76.9833 137.291 88.1144 143.141 89.3214 143.802C90.5284 144.463 90.755 145.041 90.5608 145.726C90.3666 146.41 86.8936 145.98 83.9524 146.008C81.0112 146.036 77.5984 146.591 77.9175 149.416C78.2366 152.242 84.3917 158.933 101.012 162.864L108.818 164.196L113.975 158.115C124.25 144.482 124.717 135.404 123.159 133.022C121.6 130.641 118.627 132.393 116.361 134.271C114.095 136.149 111.685 138.678 111.107 138.267C110.529 137.855 110.326 137.272 110.83 135.991C111.334 134.71 116.167 123.108 113.137 119.228C110.108 115.348 102.353 122.206 101.068 122.881C99.782 123.556 99.4352 122.238 99.5878 121.401C99.7404 120.564 101.646 110.954 102.668 106.621C103.69 102.288 103.158 99.1944 100.568 98.1122C98.0709 97.0764 95.509 100.933 93.821 102.205C92.1331 103.477 90.9631 101.095 90.9631 101.095C90.9631 101.095 89.6359 94.7641 85.4785 83.5867C81.3211 72.4094 76.4608 74.8835 76.4608 74.8835" fill="#ACC9F8"/>
<path d="M97.1714 167.165C106.726 157.931 106.903 143.543 104.444 131.045C104.032 128.959 103.908 126.709 102.613 125.035C101.318 123.36 98.7868 122.477 97.0537 123.661C95.6149 124.649 95.229 126.571 94.6012 128.206C93.7621 130.392 92.3225 132.297 90.4483 133.7C89.2253 134.609 87.6426 135.302 86.2038 134.786C84.2418 134.079 83.6205 131.62 83.2935 129.554C82.6831 125.66 82.0771 121.771 81.4754 117.886C81.1484 115.8 80.8214 113.668 79.8404 111.791C78.8594 109.914 77.1459 108.312 75.0728 108.083C72.9996 107.854 70.7302 109.391 70.6452 111.497C70.7033 112.376 70.8235 113.25 71.0049 114.113C71.0834 114.989 70.8348 116.009 70.0566 116.389C69.2783 116.768 68.33 116.31 67.6106 115.8C65.1189 114.047 63.2157 111.569 61.4172 109.097C59.6187 106.624 57.8398 104.074 55.5312 102.092C53.2226 100.111 50.2142 98.7306 47.1993 99.0445C44.1843 99.3585 41.3133 101.719 41.0255 104.774C40.7377 107.828 42.9417 110.542 45.1915 112.622C48.533 115.702 52.3019 118.284 56.3814 120.286C57.1551 120.567 57.8209 121.084 58.2846 121.765C58.9386 123.073 57.866 124.675 56.5711 125.355C55.0996 126.127 53.3861 126.238 51.7903 126.696C50.1946 127.153 48.5204 128.148 48.1868 129.789C47.6767 132.058 49.8218 134.001 51.81 135.178C55.7989 137.538 60.1635 139.195 64.7134 140.077C66.3418 140.39 68.0357 140.619 69.4418 141.496C70.8479 142.372 71.9074 144.112 71.4038 145.714C70.9002 147.316 69.0494 148.088 67.3948 148.049C65.7402 148.01 64.164 147.395 62.5421 147.042C59.501 146.427 55.8321 147.225 54.3998 149.998C53.9769 150.94 53.7785 151.967 53.8205 152.999C53.8625 154.03 54.1437 155.038 54.6418 155.943C55.6484 157.743 57.0074 159.322 58.6377 160.586C64.0615 165.303 70.6401 168.497 77.7018 169.84C84.7192 171.07 90.978 170.69 97.191 167.224" fill="#5482CD"/>
<path d="M43.5433 101.392C43.6163 101.454 43.6952 101.509 43.7787 101.556L44.4916 102.007C45.1129 102.406 46.035 102.988 47.1992 103.766C50.4941 105.965 53.6202 108.407 56.5514 111.072C58.4153 112.752 60.3838 114.675 62.4374 116.781C64.4909 118.887 66.708 121.163 68.9316 123.635C71.2705 126.207 73.4689 128.903 75.5174 131.712C76.5769 133.177 77.5644 134.727 78.5716 136.29C79.5787 137.853 80.5924 139.475 81.6192 141.103C85.5302 147.184 89.0979 153.479 92.3056 159.958C94.8967 165.265 96.9877 170.803 98.5513 176.498C99.5917 180.353 100.294 184.292 100.651 188.27C100.768 189.676 100.84 190.768 100.86 191.54C100.86 191.893 100.86 192.194 100.893 192.383C100.886 192.479 100.886 192.575 100.893 192.671C100.901 192.575 100.901 192.479 100.893 192.383C100.893 192.174 100.893 191.893 100.893 191.54C100.893 190.794 100.853 189.696 100.755 188.27C100.462 184.294 99.8055 180.354 98.7932 176.498C97.2668 170.769 95.195 165.2 92.6064 159.867C89.4293 153.355 85.881 147.031 81.9789 140.927C80.9499 139.296 79.9341 137.692 78.9313 136.113C77.9241 134.531 76.9235 132.968 75.8575 131.503C73.797 128.684 71.5831 125.981 69.2259 123.406C66.9892 120.934 64.7787 118.671 62.6859 116.565C60.5931 114.459 58.618 112.55 56.7345 110.875C53.7783 108.23 50.616 105.824 47.2777 103.681C46.1004 102.916 45.1652 102.373 44.5308 101.981L43.7984 101.562C43.7201 101.496 43.6345 101.439 43.5433 101.392Z" fill="#263238"/>
<path d="M75.7464 131.49C75.799 131.185 75.8188 130.876 75.8052 130.567C75.8052 129.972 75.8052 129.115 75.8052 128.049C75.766 125.93 75.609 123.001 75.4194 119.77C75.2297 116.539 75.1185 113.609 75.112 111.49C75.112 110.437 75.112 109.574 75.112 108.985C75.1443 108.679 75.1443 108.37 75.112 108.063C75.035 108.363 74.9933 108.67 74.9877 108.979C74.9354 109.567 74.8896 110.431 74.8635 111.49C74.7981 113.616 74.8635 116.552 75.0597 119.789C75.2559 123.027 75.4259 125.859 75.5567 128.063C75.609 129.057 75.6548 129.894 75.6941 130.567C75.6736 130.876 75.6912 131.185 75.7464 131.49Z" fill="#263238"/>
<path d="M48.1214 130.822C48.4861 130.843 48.852 130.828 49.2136 130.777C49.9134 130.731 50.9206 130.652 52.1697 130.593C54.668 130.463 58.1211 130.397 61.9405 130.495C65.7598 130.593 69.2064 130.842 71.6981 131.091C72.9473 131.202 73.9544 131.326 74.6477 131.404C75.0085 131.465 75.374 131.494 75.7399 131.489C75.3924 131.378 75.0356 131.297 74.6738 131.247C73.9806 131.123 72.9734 130.966 71.7308 130.816C69.2391 130.495 65.7794 130.208 61.9208 130.103C58.6493 130.004 55.3749 130.076 52.1108 130.319C50.8617 130.41 49.8545 130.528 49.1548 130.626C48.8055 130.663 48.4599 130.729 48.1214 130.822Z" fill="#263238"/>
<path d="M92.2467 159.383C92.3068 159.269 92.3509 159.148 92.3775 159.023C92.456 158.742 92.5606 158.369 92.6783 157.983C92.9334 157.074 93.2735 155.746 93.6724 154.111C94.4637 150.841 95.4251 146.263 96.4127 141.214C97.4002 136.166 98.3093 131.588 99.0287 128.298C99.3884 126.696 99.6827 125.381 99.8985 124.374C99.99 123.949 100.069 123.602 100.134 123.314C100.168 123.191 100.186 123.063 100.186 122.935C100.126 123.048 100.082 123.169 100.055 123.295C99.977 123.576 99.8723 123.916 99.7546 124.335C99.4995 125.244 99.1595 126.565 98.7605 128.206C97.9692 131.476 97.0078 136.054 96.0203 141.11C95.0327 146.165 94.1237 150.73 93.4043 154.02C93.0446 155.622 92.7503 156.937 92.5344 157.944C92.4429 158.369 92.3644 158.716 92.299 159.003C92.265 159.127 92.2474 159.254 92.2467 159.383Z" fill="#263238"/>
<path d="M54.7726 153.673C54.8916 153.722 55.0173 153.753 55.1453 153.765L56.2375 153.941L60.2531 154.595C63.6408 155.119 68.3169 155.903 73.477 156.754C78.637 157.604 83.3262 158.349 86.727 158.801C88.4274 159.029 89.8073 159.199 90.7622 159.298L91.8609 159.402C91.989 159.418 92.1186 159.418 92.2468 159.402C92.1249 159.355 91.9974 159.324 91.8674 159.311L90.7818 159.134L86.7662 158.513C83.3785 157.996 78.7024 157.205 73.5358 156.355C68.3692 155.504 63.6931 154.759 60.2923 154.308C58.5919 154.079 57.212 153.909 56.2571 153.811L55.1584 153.706C55.0316 153.679 54.902 153.668 54.7726 153.673Z" fill="#263238"/>
<path d="M183.145 204.195C182.762 204.085 182.37 204.008 181.974 203.966L139.196 186.02H96.6337L54.6862 202.593C50.4286 204.012 44.353 212.318 47.7996 222.245C47.8911 222.526 47.9958 222.795 48.1004 223.056C50.8537 229.962 58.5055 233.566 65.6865 231.604C71.4809 230.061 79.8063 227.791 88.3803 225.443H89.3416L116.025 217.87L138.751 224.129C150.621 227.399 163.924 231.028 172.138 233.226C179.332 235.142 186.977 231.552 189.731 224.645C189.835 224.384 189.933 224.116 190.031 223.841C193.478 213.946 187.402 205.607 183.145 204.195Z" fill="#455A64"/>
<path d="M115.698 217.968C115.698 217.968 115.744 217.968 115.842 217.909L116.273 217.778L117.967 217.281L124.357 215.463L124.285 215.588C123.186 211.539 121.715 206.157 120.021 199.937L120.171 200.048H115.789C114.279 200.048 112.742 200.186 111.159 200.251L101.31 200.794C89.1454 201.5 78.1451 202.318 70.1859 202.965L60.7618 203.744L58.1981 203.953L57.5441 203.999H57.3217C57.3938 203.976 57.4686 203.963 57.5441 203.959L58.1981 203.881L60.7552 203.606C62.9788 203.384 66.1965 203.07 70.1728 202.717C78.1255 202.01 89.1388 201.154 101.297 200.447L111.152 199.918C112.729 199.852 114.279 199.741 115.789 199.721H120.295V199.839C121.95 206.065 123.382 211.461 124.455 215.535V215.633H124.357L117.941 217.36L116.234 217.805L115.796 217.916L115.698 217.968Z" fill="#263238"/>
<path d="M101.833 200.447C100.91 200.033 100.061 199.47 99.3217 198.78C98.506 198.177 97.7984 197.441 97.2289 196.602C98.035 197.195 98.8059 197.835 99.5375 198.518C100.342 199.113 101.109 199.757 101.833 200.447Z" fill="#263238"/>
<path d="M178.102 205.738C177.907 205.754 177.71 205.754 177.514 205.738L175.84 205.64L169.672 205.215L149.333 203.848L128.987 202.619L122.846 202.239L121.165 202.128C120.97 202.121 120.775 202.099 120.583 202.063C120.779 202.051 120.976 202.051 121.172 202.063L122.846 202.115L129.026 202.37C134.258 202.612 141.452 203.024 149.385 203.502C157.318 203.979 164.519 204.548 169.718 204.973L175.872 205.503L177.547 205.666C177.734 205.675 177.919 205.699 178.102 205.738Z" fill="#263238"/>
<path d="M179.234 209.983C179.114 209.302 178.953 208.629 178.75 207.968C178.462 207.349 178.139 206.746 177.782 206.163C178.412 206.545 178.878 207.146 179.09 207.851C179.404 208.518 179.455 209.279 179.234 209.983Z" fill="#263238"/>
<path d="M116.404 204.921C116.891 204.443 117.497 204.102 118.158 203.933C118.82 203.764 119.514 203.773 120.171 203.959C120.171 204.058 119.275 203.959 118.242 204.267C117.209 204.574 116.463 205.006 116.404 204.921Z" fill="#263238"/>
<path d="M117.562 207.622C118.111 207.389 118.699 207.263 119.295 207.249C119.88 207.12 120.484 207.106 121.074 207.21C120.525 207.443 119.937 207.569 119.341 207.583C118.756 207.712 118.152 207.725 117.562 207.622Z" fill="#263238"/>
<path d="M118.085 210.761C118.085 210.663 119.033 210.637 120.138 210.31C121.244 209.983 122.068 209.512 122.1 209.59C121.559 210.077 120.915 210.434 120.217 210.637C119.518 210.84 118.783 210.882 118.065 210.761H118.085Z" fill="#263238"/>
<path d="M119.125 214.142C119.125 214.044 120.034 213.966 121.087 213.573C122.14 213.181 122.866 212.645 122.924 212.723C122.496 213.289 121.894 213.7 121.211 213.894C120.561 214.199 119.829 214.286 119.125 214.142Z" fill="#263238"/>
<path d="M138.627 198.826C138.202 199.518 137.72 200.174 137.188 200.788C136.746 201.478 136.252 202.134 135.71 202.75C136.328 201.212 137.332 199.86 138.627 198.826Z" fill="#263238"/>
<path d="M160.353 171.246C151.812 159.697 149.85 157.375 149.85 157.375L160.353 171.246ZM160.353 171.246C162.005 173.495 164.312 175.179 166.958 176.066C169.604 176.953 172.459 177.002 175.133 176.204L160.353 171.246ZM214.218 162.464L214.21 162.215L214.218 162.464L214.218 162.464L214.219 162.464L214.222 162.464L214.233 162.464L214.277 162.463L214.443 162.457L215.041 162.438C215.537 162.422 216.204 162.401 216.884 162.379C218.239 162.337 219.637 162.295 219.857 162.295C220.103 162.302 220.265 162.365 220.358 162.436C220.448 162.504 220.477 162.579 220.475 162.65C220.47 162.803 220.286 163.114 219.624 163.301C219.093 163.443 217.707 163.841 216.456 164.202C215.83 164.383 215.236 164.556 214.799 164.683L214.276 164.835L214.132 164.877L214.094 164.888L214.085 164.89L214.084 164.89L214.082 164.891L200.343 168.413L200.324 168.364L200.103 168.43L175.062 175.964C172.437 176.747 169.634 176.7 167.037 175.829C164.44 174.958 162.176 173.306 160.554 171.098L160.554 171.098C156.283 165.322 153.656 161.853 152.096 159.827C151.317 158.814 150.804 158.162 150.485 157.762C150.36 157.605 150.264 157.487 150.195 157.401L160.595 148.053L170.715 162.859L170.808 162.996L170.97 162.963L196.143 157.947L196.143 157.947L196.155 157.944L196.094 157.702L196.155 157.944L196.155 157.944L196.156 157.944L196.159 157.943L196.172 157.94L196.221 157.928L196.408 157.881L197.076 157.712C197.629 157.572 198.367 157.386 199.107 157.198C199.848 157.01 200.59 156.822 201.153 156.678C201.434 156.606 201.67 156.545 201.838 156.501C201.922 156.479 201.99 156.461 202.038 156.449C202.062 156.442 202.082 156.437 202.097 156.432L202.118 156.426C202.118 156.426 202.137 156.421 202.155 156.412L202.19 156.397L202.218 156.372L209.454 149.94C209.475 149.952 209.498 149.967 209.521 149.984C209.621 150.06 209.722 150.177 209.752 150.362C209.783 150.55 209.748 150.849 209.488 151.299C209.228 151.75 208.752 152.336 207.933 153.083L207.933 153.083C207.069 153.872 207.061 155.173 207.593 156.097C207.863 156.566 208.28 156.957 208.82 157.149C209.364 157.343 210.008 157.327 210.712 157.022C212.11 156.418 212.943 155.108 213.009 153.734C213.073 152.38 212.394 150.98 210.827 150.129C210.821 150.102 210.814 150.07 210.808 150.034C210.786 149.912 210.768 149.749 210.778 149.579C210.799 149.24 210.924 148.919 211.32 148.774C211.392 148.748 211.508 148.739 211.675 148.774C211.839 148.808 212.034 148.879 212.249 148.988C212.68 149.207 213.169 149.566 213.623 150.028C214.537 150.956 215.263 152.246 215.158 153.566C215.045 154.695 214.695 155.788 214.13 156.773L213.828 157.3L214.414 157.139L214.347 156.898L214.414 157.139L214.414 157.138L214.415 157.138L214.42 157.137L214.439 157.132L214.512 157.112C214.577 157.094 214.672 157.068 214.792 157.035C215.034 156.97 215.379 156.878 215.795 156.769C216.626 156.552 217.736 156.27 218.853 156.01C219.971 155.749 221.091 155.512 221.944 155.385C222.372 155.32 222.723 155.285 222.969 155.286C223.085 155.287 223.165 155.295 223.214 155.307C223.243 155.414 223.24 155.52 223.157 155.658C223.044 155.845 222.769 156.106 222.146 156.446C220.907 157.124 218.418 158.049 213.556 159.357L213.662 159.845L213.621 159.599L213.663 159.845L213.663 159.845L213.664 159.845L213.668 159.844L213.685 159.841L213.75 159.83L214.001 159.789C214.217 159.753 214.526 159.702 214.901 159.64C215.651 159.516 216.661 159.351 217.703 159.184C219.795 158.848 221.986 158.51 222.483 158.481C222.68 158.473 222.876 158.526 223.027 158.617C223.181 158.71 223.258 158.823 223.275 158.918C223.289 158.999 223.269 159.129 223.08 159.296C222.886 159.468 222.534 159.657 221.945 159.822C221.945 159.822 221.945 159.822 221.945 159.822L214.143 161.974L214.218 162.464ZM223.251 155.319C223.251 155.319 223.249 155.318 223.246 155.316C223.25 155.318 223.251 155.319 223.251 155.319Z" fill="white" stroke="black" stroke-width="0.5"/>
<path d="M28.0075 156.134L28.016 155.884L28.0076 156.134L28.0825 155.643L20.1631 153.459C20.1629 153.459 20.1628 153.459 20.1626 153.459C19.5689 153.293 19.2105 153.104 19.0119 152.931C18.8177 152.763 18.796 152.631 18.8086 152.552C18.8231 152.459 18.8973 152.348 19.0502 152.257C19.1998 152.167 19.3982 152.114 19.5991 152.125C20.0821 152.15 22.2746 152.486 24.3722 152.822C25.4153 152.988 26.4272 153.153 27.1783 153.277C27.5539 153.338 27.8643 153.39 28.0807 153.426L28.3314 153.467L28.3972 153.478L28.414 153.481L28.4182 153.482L28.4193 153.482L28.4196 153.482L28.4607 153.235L28.4196 153.482L28.5252 152.994C23.6732 151.699 21.1896 150.773 19.9508 150.093C19.3289 149.751 19.0518 149.488 18.9355 149.297C18.8502 149.158 18.8455 149.049 18.8705 148.942C18.9186 148.931 18.9958 148.923 19.1075 148.923C19.352 148.922 19.7016 148.958 20.1294 149.022C20.9816 149.151 22.1021 149.388 23.2218 149.649C24.3401 149.91 25.4518 150.193 26.2843 150.411C26.7005 150.52 27.0466 150.613 27.2887 150.678C27.4097 150.711 27.5047 150.737 27.5694 150.755L27.6431 150.775L27.662 150.78L27.6667 150.781L27.6679 150.782L27.6682 150.782L27.7348 150.541L27.6682 150.782L28.2536 150.943L27.9517 150.416C27.3864 149.43 27.0363 148.334 26.9243 147.203C26.819 145.882 27.5378 144.593 28.447 143.667C28.899 143.207 29.3865 142.849 29.8184 142.631C30.0345 142.522 30.2306 142.45 30.397 142.417C30.566 142.383 30.6865 142.391 30.7641 142.418C31.1792 142.566 31.3089 142.888 31.3326 143.221C31.3446 143.39 31.3273 143.551 31.3061 143.673C31.2998 143.708 31.2933 143.74 31.2873 143.767C29.7364 144.621 29.0644 146.021 29.1283 147.373C29.1931 148.745 30.0162 150.053 31.4018 150.659C32.1002 150.964 32.7414 150.979 33.2834 150.786C33.822 150.593 34.24 150.202 34.5115 149.734C35.0465 148.811 35.0465 147.51 34.1825 146.72C33.3755 145.973 32.9048 145.388 32.6462 144.937C32.3877 144.485 32.3506 144.185 32.38 143.996C32.4087 143.81 32.5069 143.694 32.603 143.619C32.6234 143.603 32.6435 143.59 32.6624 143.578L39.8966 150.008L39.9335 150.041L39.9801 150.057C40.01 150.068 40.1334 150.1 40.297 150.141C40.4709 150.186 40.7119 150.247 40.9971 150.318C41.5676 150.461 42.3158 150.648 43.0598 150.833C43.8038 151.018 44.5437 151.202 45.0976 151.34L45.7662 151.505L45.9532 151.552L46.0025 151.564L46.0151 151.567L46.0183 151.568L46.0191 151.568L46.0193 151.568L46.0795 151.325L46.0193 151.568L46.0306 151.571L71.203 156.593L71.3652 156.626L71.4584 156.489L81.5717 141.683L91.9988 151.051C91.9296 151.137 91.8347 151.255 91.7096 151.412C91.3922 151.812 90.8804 152.464 90.1015 153.477C88.5438 155.503 85.9171 158.972 81.6393 164.747L81.6387 164.748C80.0211 166.952 77.7636 168.605 75.1733 169.48C72.5834 170.355 69.7866 170.411 67.1638 169.64C67.1635 169.64 67.1633 169.64 67.163 169.64L42.1229 162.099L41.8976 162.032L41.8772 162.087L28.1405 158.559L22.6045 156.971L22.6033 156.971C21.9438 156.785 21.7647 156.469 21.7611 156.313C21.7594 156.239 21.7908 156.163 21.8774 156.098C21.9682 156.03 22.1262 155.97 22.3655 155.97V155.97L22.3733 155.97C22.5723 155.964 23.972 156.004 25.3399 156.047C26.0199 156.068 26.6868 156.09 27.1838 156.106L27.7821 156.126L27.9488 156.132L27.9926 156.133L28.0038 156.134L28.0066 156.134L28.0074 156.134L28.0075 156.134ZM18.83 148.955C18.8298 148.954 18.8313 148.954 18.8352 148.952C18.8321 148.954 18.8301 148.955 18.83 148.955ZM31.2633 143.861C31.2633 143.861 31.2633 143.861 31.2633 143.861L31.2633 143.861Z" fill="white" stroke="black" stroke-width="0.5"/>
<path d="M141.858 186.995L137.626 168.029C137.842 165.38 140.896 148.638 141.276 147.643L155.049 167.702L171.137 160.933C171.137 160.933 157.469 138.043 151.517 129.469C144.206 118.972 129.935 117.847 129.935 117.847L111.545 118.096C111.545 118.096 98.7003 115.244 85.81 132.556L71.023 155.884L83.7237 162.345C84.3099 162.666 84.9896 162.771 85.6452 162.643C86.3008 162.515 86.8912 162.163 87.3142 161.646L97.7455 148.932L100.911 166.858L96.5094 182.07C96.5094 182.07 92.4939 182.6 93.2394 187.492C93.2394 187.492 106.319 193.639 118.654 192.881C130.988 192.122 141.858 186.995 141.858 186.995Z" fill="#74A5F3"/>
<path d="M134.997 156.106C134.989 156.215 134.963 156.321 134.919 156.42C134.853 156.616 134.762 156.911 134.611 157.283C134.2 158.329 133.708 159.342 133.14 160.311C131.268 163.542 128.653 166.28 125.512 168.298C122.37 170.316 118.793 171.555 115.076 171.913C113.958 172.029 112.831 172.055 111.708 171.992C111.309 171.992 111.002 171.926 110.799 171.907C110.69 171.907 110.582 171.889 110.479 171.855C110.891 171.833 111.303 171.833 111.715 171.855C112.83 171.866 113.944 171.805 115.05 171.671C118.712 171.253 122.228 170.001 125.33 168.01C128.431 166.019 131.033 163.342 132.937 160.187C133.519 159.237 134.037 158.25 134.487 157.231C134.637 156.847 134.807 156.472 134.997 156.106Z" fill="#263238"/>
<path d="M156.959 167.159C156.887 167.218 156.377 166.694 155.958 165.903C155.653 165.448 155.485 164.914 155.474 164.366C155.566 164.334 155.853 164.981 156.259 165.74C156.553 166.18 156.788 166.657 156.959 167.159Z" fill="#263238"/>
<path d="M160.222 165.648C160.137 165.687 159.81 165.092 159.418 164.373C159.121 163.955 158.899 163.488 158.764 162.993C158.836 162.941 159.293 163.464 159.699 164.209C160 164.633 160.181 165.13 160.222 165.648Z" fill="#263238"/>
<path d="M163.996 163.653C163.924 163.706 163.459 163.156 162.969 162.43C162.624 162.017 162.37 161.536 162.223 161.018C162.302 160.965 162.766 161.515 163.25 162.241C163.595 162.654 163.85 163.135 163.996 163.653Z" fill="#263238"/>
<path d="M167.71 161.816C167.619 161.816 167.351 161.286 167.004 160.606C166.657 159.926 166.35 159.389 166.429 159.33C166.507 159.272 166.945 159.749 167.305 160.455C167.575 160.857 167.716 161.332 167.71 161.816Z" fill="#263238"/>
<path d="M73.4821 156.499C73.4037 156.446 73.6718 155.91 74.0838 155.295C74.4958 154.681 74.8817 154.229 74.9602 154.282C75.0387 154.334 74.7705 154.87 74.365 155.485C73.9596 156.1 73.5606 156.551 73.4821 156.499Z" fill="#263238"/>
<path d="M78.6422 155.805C78.4686 156.34 78.1857 156.832 77.8116 157.251C77.2688 157.99 76.7717 158.559 76.6998 158.493C76.8765 157.961 77.159 157.469 77.5304 157.048C78.0732 156.309 78.5702 155.74 78.6422 155.805Z" fill="#263238"/>
<path d="M82.0299 158.075C81.9766 158.566 81.811 159.038 81.5459 159.455C81.1928 160.181 80.8396 160.763 80.7546 160.691C80.8079 160.2 80.9735 159.728 81.2385 159.311C81.5917 158.585 81.9449 158.029 82.0299 158.075Z" fill="#263238"/>
<path d="M85.398 160.213C85.4699 160.272 85.0906 160.867 84.5608 161.469C84.0311 162.071 83.5341 162.568 83.4621 162.509C83.3902 162.45 83.763 161.855 84.2992 161.253C84.8355 160.652 85.326 160.154 85.398 160.213Z" fill="#263238"/>
<path d="M96.032 188.309C95.659 187.54 95.5354 186.673 95.6785 185.83C95.8215 184.987 96.224 184.21 96.8299 183.607C96.4839 184.337 96.2164 185.102 96.032 185.889C95.9444 186.694 95.9444 187.505 96.032 188.309Z" fill="#263238"/>
<path d="M99.616 189.676C99.5767 189.676 99.4067 189.493 99.2563 189.101C99.0625 188.581 98.9953 188.023 99.0601 187.472C99.1194 186.92 99.3076 186.389 99.6094 185.922C99.8449 185.569 100.054 185.412 100.087 185.438C99.7755 186.094 99.5555 186.789 99.4328 187.505C99.3907 188.234 99.4524 188.965 99.616 189.676Z" fill="#263238"/>
<path d="M103.723 187.034C103.857 187.679 103.879 188.343 103.788 188.996C103.816 189.661 103.723 190.326 103.514 190.958C103.384 190.312 103.362 189.649 103.448 188.996C103.428 188.331 103.52 187.667 103.723 187.034Z" fill="#263238"/>
<path d="M109.334 188.172C109.426 188.218 109.014 189.087 108.916 190.232C108.818 191.376 109.034 192.312 108.916 192.338C108.61 191.67 108.486 190.933 108.556 190.201C108.626 189.47 108.888 188.77 109.315 188.172H109.334Z" fill="#263238"/>
<path d="M113.69 188.839C113.711 189.532 113.696 190.227 113.644 190.919C113.7 191.617 113.715 192.318 113.69 193.018C113.167 191.681 113.167 190.196 113.69 188.859V188.839Z" fill="#263238"/>
<path d="M119.072 192.874C118.94 192.152 118.848 191.422 118.798 190.69C118.638 189.972 118.527 189.245 118.464 188.512C118.848 189.161 119.072 189.891 119.118 190.644C119.287 191.38 119.271 192.146 119.072 192.874Z" fill="#263238"/>
<path d="M124.769 192.469C124.671 192.469 124.769 191.54 124.618 190.435C124.468 189.329 124.082 188.473 124.174 188.44C124.636 188.995 124.911 189.681 124.958 190.402C125.116 191.094 125.05 191.817 124.769 192.469Z" fill="#263238"/>
<path d="M130.387 191.265C130.289 191.265 130.262 190.33 129.994 189.225C129.726 188.12 129.34 187.263 129.425 187.23C129.901 187.771 130.214 188.435 130.328 189.146C130.552 189.832 130.572 190.568 130.387 191.265Z" fill="#263238"/>
<path d="M135.115 189.99C135.034 189.298 134.919 188.61 134.768 187.93C134.441 186.831 133.833 186.092 133.912 186.027C134.468 186.505 134.876 187.132 135.089 187.834C135.302 188.535 135.311 189.283 135.115 189.99Z" fill="#263238"/>
<path d="M139.288 188.44C139.189 188.44 139.288 187.446 139 186.301C138.712 185.157 138.195 184.339 138.28 184.267C138.794 184.817 139.156 185.49 139.333 186.221C139.509 186.952 139.494 187.717 139.288 188.44Z" fill="#263238"/>
<path d="M155.409 137.186L155.232 137.219L154.702 137.284L152.682 137.513C151.799 137.611 150.72 137.722 149.47 137.82C148.221 137.919 146.789 138.056 145.213 138.147C142.054 138.37 138.294 138.533 134.095 138.625C129.896 138.716 125.312 138.664 120.485 138.474C115.659 138.285 111.068 137.932 106.902 137.533C102.736 137.134 99.0012 136.643 95.8751 136.166C94.3055 135.957 92.8994 135.701 91.6568 135.512C90.4142 135.322 89.3482 135.119 88.4849 134.949L86.4836 134.563L85.967 134.452L85.7904 134.407H85.9735L86.4967 134.485L88.5045 134.805C89.3743 134.956 90.4665 135.132 91.6895 135.316C92.9125 135.499 94.3382 135.728 95.9078 135.93C99.0339 136.375 102.775 136.813 106.934 137.238C111.094 137.663 115.678 137.951 120.498 138.154C125.318 138.357 129.909 138.376 134.088 138.331C138.267 138.285 142.028 138.115 145.206 137.925C146.782 137.853 148.208 137.735 149.464 137.65C150.72 137.565 151.792 137.48 152.675 137.402L154.702 137.238L155.232 137.206L155.409 137.186Z" fill="#263238"/>
<g opacity="0.5">
<path opacity="0.2" d="M111.27 171.985C109.946 171.607 108.723 170.937 107.693 170.023C106.738 169.029 106.306 167.407 107.078 166.256C107.439 165.812 107.909 165.469 108.442 165.259C108.974 165.049 109.552 164.981 110.119 165.059C111.248 165.23 112.362 165.481 113.455 165.812C115.114 166.167 116.831 166.146 118.481 165.751C120.131 165.356 121.672 164.597 122.99 163.529C124.913 161.953 126.26 159.775 128.045 158.049C128.563 157.451 129.273 157.053 130.053 156.924C131.413 156.819 132.499 158.232 132.492 159.612C132.486 160.992 131.721 162.228 130.877 163.274C128.454 166.305 125.331 168.702 121.777 170.261C118.223 171.819 114.344 172.492 110.472 172.221" fill="black"/>
</g>
<g opacity="0.2">
<path opacity="0.2" d="M98.6938 183.012C104.083 186.373 110.603 187.59 116.947 187.466C123.291 187.341 129.563 186.053 135.776 184.751C136.351 184.688 136.895 184.461 137.345 184.097C137.452 184.003 137.538 183.887 137.599 183.758C137.659 183.629 137.693 183.489 137.698 183.347C137.703 183.204 137.679 183.062 137.627 182.929C137.575 182.796 137.497 182.675 137.398 182.574C131.656 185.038 125.456 186.254 119.208 186.141C112.961 186.028 106.809 184.589 101.159 181.92C100.556 181.527 99.832 181.365 99.1189 181.462C98.4257 181.651 97.994 182.672 98.5761 183.097" fill="black"/>
</g>
<path d="M123.603 211.689L121.014 201.807L131.936 201.273L132.067 201.266L132.136 201.154L132.136 201.154L132.136 201.154L132.136 201.154L132.137 201.153L132.139 201.149L132.15 201.133C132.159 201.119 132.173 201.096 132.192 201.068C132.23 201.012 132.287 200.93 132.359 200.832C132.505 200.636 132.714 200.377 132.969 200.125C133.492 199.605 134.147 199.171 134.809 199.238C135.502 199.307 136.117 199.784 136.745 200.317C136.789 200.354 136.834 200.392 136.878 200.43C137.139 200.652 137.402 200.877 137.662 201.057C137.965 201.267 138.294 201.438 138.645 201.468C138.813 201.483 139.189 201.458 139.675 201.424C139.757 201.418 139.843 201.412 139.933 201.405C140.391 201.373 140.947 201.333 141.57 201.298C143.062 201.215 144.933 201.159 146.754 201.294C148.581 201.43 150.33 201.755 151.594 202.415C152.222 202.743 152.72 203.149 153.05 203.645C153.35 204.094 153.52 204.629 153.517 205.273L123.603 211.689Z" fill="white" stroke="black" stroke-width="0.5"/>
<path d="M86.4027 131.702C90.8519 124.802 95.7273 121.137 102.149 119.32C108.691 117.468 116.854 117.528 127.849 118.09C138.766 118.649 145.641 123.31 149.789 127.823C151.865 130.082 153.259 132.306 154.135 133.964C154.572 134.793 154.879 135.48 155.077 135.958C155.14 136.111 155.192 136.242 155.233 136.35L154.831 136.324L152.616 136.182C150.708 136.059 147.983 135.884 144.713 135.673C138.173 135.25 129.455 134.684 120.743 134.11C112.03 133.535 103.324 132.952 96.8064 132.495C93.5477 132.267 90.8369 132.07 88.9466 131.922C88.0012 131.848 87.2623 131.786 86.763 131.738C86.6231 131.725 86.5029 131.713 86.4027 131.702Z" fill="white" stroke="black" stroke-width="0.5"/>
<path d="M128.476 110.026L128.476 110.026L128.476 110.026L128.476 110.026L128.27 110.054L128.26 110.262L128.51 110.274C128.51 110.274 128.281 115.14 128.143 119.77L127.894 119.763C127.894 119.763 127.894 119.763 127.894 119.763C127.767 123.989 124.034 127.426 119.448 127.381C114.942 127.337 111.405 123.899 111.461 119.688C111.461 119.688 111.461 119.688 111.461 119.688L111.977 82.2015C115.051 79.0086 119.031 76.8341 123.38 75.9725C127.711 75.1146 132.199 75.5996 136.245 77.3607L136.247 77.3991C136.252 77.5263 136.259 77.7138 136.268 77.9553C136.286 78.4381 136.309 79.1364 136.334 79.9974C136.382 81.7195 136.433 84.0924 136.44 86.6955C136.456 91.9097 136.3 98.0216 135.621 101.687C134.918 105.489 133.116 107.568 131.507 108.7C130.7 109.268 129.937 109.6 129.377 109.791C129.098 109.886 128.869 109.945 128.712 109.98C128.634 109.998 128.573 110.01 128.533 110.017C128.513 110.02 128.498 110.023 128.488 110.024L128.478 110.026L128.476 110.026Z" fill="white" stroke="black" stroke-width="0.5"/>
<path d="M128.124 97.534C128.689 97.3786 129.271 97.2908 129.857 97.2724C130.125 97.2724 130.387 97.207 130.439 97.0239C130.466 96.7412 130.409 96.4568 130.275 96.2064L129.53 94.094C128.497 91.0921 127.758 88.62 127.875 88.5807C127.993 88.5415 128.935 90.9417 129.968 93.9501C130.217 94.6891 130.452 95.3954 130.681 96.069C130.838 96.406 130.877 96.7862 130.792 97.1481C130.75 97.2438 130.687 97.3288 130.608 97.3967C130.529 97.4647 130.435 97.5138 130.334 97.5405C130.182 97.5766 130.026 97.592 129.87 97.5863C129.288 97.6475 128.701 97.6299 128.124 97.534Z" fill="#263238"/>
<path d="M128.51 110.241C124.873 110.19 121.325 109.118 118.268 107.148C118.268 107.148 120.622 112.569 128.346 112.079L128.51 110.241Z" fill="#EB996E"/>
<path d="M127.601 100.098C127.408 99.8348 127.151 99.6257 126.854 99.4906C126.558 99.3555 126.231 99.2988 125.907 99.326C125.672 99.3397 125.442 99.4012 125.232 99.507C125.021 99.6127 124.835 99.7603 124.684 99.9407C124.535 100.115 124.444 100.331 124.423 100.56C124.402 100.788 124.452 101.017 124.566 101.216C124.729 101.414 124.948 101.558 125.194 101.63C125.44 101.701 125.703 101.696 125.946 101.615C126.453 101.451 126.923 101.186 127.326 100.837C127.45 100.757 127.557 100.652 127.64 100.529C127.678 100.47 127.699 100.401 127.699 100.33C127.699 100.259 127.678 100.19 127.64 100.13" fill="#EB996E"/>
<path d="M124.978 98.188C125.148 98.188 125.122 99.3521 126.083 100.209C127.045 101.066 128.281 100.974 128.287 101.138C128.294 101.301 128.006 101.353 127.483 101.353C126.806 101.337 126.156 101.085 125.645 100.64C125.155 100.209 124.85 99.6043 124.795 98.9532C124.762 98.443 124.9 98.188 124.978 98.188Z" fill="#263238"/>
<path d="M124.749 90.7847C124.749 90.7847 124.631 91.0398 124.278 91.2752C123.815 91.5824 123.271 91.7441 122.715 91.7395C122.158 91.7363 121.614 91.5679 121.152 91.2556C120.806 91.0136 120.662 90.7912 120.688 90.7585C121.309 91.1201 122 91.3432 122.715 91.4125C123.431 91.3551 124.125 91.1407 124.749 90.7847Z" fill="#263238"/>
<path d="M135.579 90.8305C135.579 90.8305 135.468 91.0398 135.161 91.2229C134.745 91.4473 134.278 91.5599 133.806 91.5496C133.333 91.5392 132.872 91.4064 132.466 91.164C132.159 90.9678 132.028 90.7782 132.061 90.752C132.619 90.9921 133.21 91.1464 133.814 91.2098C134.418 91.1739 135.013 91.046 135.579 90.8305Z" fill="#263238"/>
<path d="M125.168 86.6318C125.089 86.913 124.115 86.8738 122.97 87.0111C121.826 87.1485 120.891 87.397 120.747 87.1419C120.603 86.8869 121.486 86.1544 122.853 85.9974C124.219 85.8405 125.253 86.3767 125.168 86.6318Z" fill="#263238"/>
<path d="M135.625 87.639C135.455 87.8744 134.625 87.5474 133.611 87.312C132.597 87.0765 131.714 86.9654 131.649 86.658C131.583 86.3506 132.597 86.004 133.833 86.2983C135.069 86.5926 135.795 87.4231 135.625 87.639Z" fill="#263238"/>
<path d="M138.058 76.5668C136.802 74.6047 134.409 73.6761 132.172 73.0482C129.825 72.3948 127.437 71.8966 125.024 71.5571C123.558 71.2651 122.045 71.3053 120.596 71.6748C120.426 71.7337 120.269 71.7991 120.112 71.8645C117.281 71.7364 114.482 72.5179 112.127 74.0946C111.1 74.6743 110.235 75.5017 109.609 76.5013C108.809 77.5252 108.149 78.6514 107.647 79.8498C105.352 83.8654 102.317 89.4636 101.905 92.3936C101.257 97.0229 102.178 101.736 104.521 105.781C105.108 106.759 105.789 107.677 106.555 108.521C105.867 109.122 105.304 109.852 104.899 110.671C104.494 111.489 104.254 112.379 104.193 113.291C104.133 114.202 104.252 115.116 104.545 115.981C104.838 116.846 105.299 117.645 105.901 118.331C104.984 119.071 104.336 120.091 104.057 121.235C103.827 122.328 103.936 123.466 104.368 124.496C104.8 125.526 105.536 126.401 106.476 127.003L106.83 127.193C106.721 127.287 106.621 127.39 106.529 127.5C106.161 127.965 105.891 128.5 105.736 129.072C105.581 129.644 105.544 130.242 105.626 130.829C105.799 132.007 106.247 133.127 106.934 134.099C107.556 135.047 108.438 135.963 109.55 136.061C109.707 136.078 109.865 136.078 110.021 136.061C109.539 136.268 109.132 136.618 108.858 137.065C108.583 137.512 108.454 138.033 108.488 138.557C108.521 139.08 108.716 139.581 109.046 139.989C109.376 140.397 109.824 140.692 110.328 140.835C110.72 140.888 111.096 141.022 111.434 141.228C111.574 141.365 111.678 141.535 111.737 141.722C111.796 141.909 111.809 142.107 111.774 142.3C111.7 142.686 111.563 143.057 111.368 143.399C111.656 143.363 111.928 143.244 112.148 143.055C112.369 142.867 112.53 142.618 112.611 142.34C112.611 142.706 112.611 143.072 112.611 143.438C113.451 142.86 114.065 142.01 114.351 141.032C114.707 140.07 114.791 139.029 114.593 138.023C114.49 137.522 114.285 137.048 113.99 136.63C113.695 136.213 113.317 135.861 112.879 135.597C112.457 135.362 111.982 135.236 111.499 135.231C111.923 134.794 112.224 134.252 112.369 133.661C112.562 131.503 112.159 129.334 111.205 127.389C111.068 127.152 110.903 126.933 110.714 126.735C111.277 126.081 111.669 125.296 111.852 124.453C112.079 123.66 112.144 122.829 112.045 122.011C111.947 121.192 111.685 120.401 111.277 119.685C111.188 119.551 111.092 119.422 110.989 119.299C111.557 118.515 111.906 117.594 112.003 116.631C112.285 115.285 112.413 113.911 112.382 112.537C113.412 111.695 114.21 110.606 114.704 109.371C117.091 104.185 114.305 96.8408 114.305 96.8408C118.366 92.8121 119.144 85.1407 119.223 80.6085C119.922 81.5967 120.792 82.4516 121.793 83.1329C122.494 83.6875 123.373 83.9687 124.265 83.9243C124.706 83.8828 125.113 83.6681 125.396 83.3274C125.679 82.9866 125.816 82.5474 125.776 82.1061C126.252 83.126 126.881 84.0676 127.64 84.8987C128.022 85.3111 128.492 85.6331 129.015 85.8413C129.537 86.0494 130.1 86.1385 130.661 86.1021C131.22 86.0402 131.737 85.7772 132.116 85.362C132.495 84.9468 132.711 84.4079 132.721 83.8458C133.306 84.7906 134.124 85.5696 135.095 86.1086C135.587 86.3675 136.147 86.4657 136.697 86.3895C137.248 86.3132 137.76 86.0663 138.163 85.6835C138.658 84.9873 138.917 84.1507 138.902 83.2964C139.131 80.9747 139.288 78.5026 138.058 76.5668Z" fill="#263238"/>
<path d="M106.705 104.859C106.652 104.783 106.61 104.699 106.581 104.61C106.482 104.359 106.412 104.098 106.372 103.832C106.248 102.839 106.395 101.831 106.797 100.915C107.414 99.5726 108.305 98.374 109.413 97.3966C110.739 96.2276 111.969 94.9525 113.088 93.5838C114.947 90.964 116.388 88.0716 117.359 85.0099C117.738 83.8785 118.059 82.9433 118.294 82.2304C118.394 81.8863 118.519 81.5497 118.667 81.2232C118.617 81.5785 118.536 81.9287 118.425 82.2696C118.242 82.9236 117.967 83.9046 117.588 85.0884C116.675 88.2066 115.245 91.1492 113.356 93.7931C112.226 95.1731 110.979 96.4531 109.629 97.619C108.539 98.5619 107.649 99.7139 107.013 101.007C106.606 101.883 106.428 102.849 106.496 103.812C106.581 104.493 106.744 104.846 106.705 104.859Z" fill="#74A5F3"/>
<path d="M110.629 118.913C110.472 118.889 110.32 118.833 110.185 118.75C109.793 118.574 109.422 118.354 109.079 118.096C107.926 117.225 107.035 116.053 106.506 114.709C105.976 113.364 105.828 111.9 106.077 110.477C106.152 110.048 106.265 109.628 106.418 109.221C106.529 108.94 106.614 108.789 106.633 108.802C106.653 108.815 106.444 109.456 106.313 110.509C106.134 111.889 106.308 113.292 106.818 114.587C107.328 115.881 108.158 117.026 109.23 117.913C110.047 118.573 110.655 118.861 110.629 118.913Z" fill="#74A5F3"/>
<path d="M110.23 120.058C110.23 120.097 109.943 120.228 109.419 120.254C108.731 120.271 108.05 120.101 107.45 119.763C106.85 119.424 106.353 118.93 106.012 118.331C105.85 118.096 105.761 117.819 105.757 117.533C105.809 117.533 105.934 117.808 106.215 118.187C106.588 118.702 107.067 119.13 107.621 119.443C108.173 119.755 108.787 119.942 109.419 119.992C109.91 120.051 110.224 120.005 110.23 120.058Z" fill="#74A5F3"/>
<path d="M107.516 126.061C107.516 126.009 107.824 125.819 108.268 125.407C108.839 124.875 109.285 124.223 109.576 123.499C109.866 122.774 109.994 121.995 109.949 121.215C109.896 120.891 109.863 120.563 109.851 120.234C110.052 120.514 110.17 120.845 110.191 121.189C110.309 122.014 110.207 122.855 109.897 123.629C109.588 124.403 109.078 125.08 108.419 125.591C108.167 125.828 107.855 125.991 107.516 126.061Z" fill="#74A5F3"/>
<path d="M110.636 126.513C110.675 126.513 110.636 126.768 110.387 127.069C110.07 127.464 109.623 127.735 109.125 127.834C108.626 127.927 108.111 127.843 107.667 127.598C107.333 127.409 107.196 127.206 107.228 127.18C107.261 127.154 107.444 127.265 107.771 127.376C108.187 127.538 108.641 127.579 109.079 127.494C109.509 127.404 109.906 127.201 110.23 126.905C110.466 126.676 110.59 126.493 110.636 126.513Z" fill="#74A5F3"/>
<path d="M111.185 134.949C110.586 133.654 109.903 132.4 109.138 131.195C108.285 130.047 107.359 128.955 106.365 127.925C106.747 128.114 107.095 128.366 107.392 128.671C108.155 129.359 108.836 130.134 109.419 130.98C110.003 131.824 110.484 132.735 110.852 133.694C111.038 134.089 111.151 134.514 111.185 134.949Z" fill="#74A5F3"/>
<path d="M112.186 135.185C112.232 135.263 111.806 135.59 111.185 135.839C110.564 136.087 110.028 136.087 110.015 135.996C110.001 135.904 110.485 135.734 111.074 135.525C111.663 135.316 112.14 135.1 112.186 135.185Z" fill="#455A64"/>
<path d="M103.226 103.858C103.184 103.76 103.158 103.657 103.148 103.551C103.108 103.342 103.049 103.041 102.991 102.648C102.8 101.54 102.693 100.418 102.67 99.2932C102.612 97.6029 102.967 95.9238 103.703 94.4013C104.161 93.5052 104.811 92.7212 105.607 92.1058C106.461 91.4653 107.384 90.9234 108.36 90.4904C109.319 90.0683 110.255 89.5968 111.166 89.0778C112 88.5841 112.782 88.0079 113.5 87.3578C114.722 86.2507 115.758 84.9545 116.568 83.5188C117.288 82.1782 117.85 80.7582 118.242 79.2874C118.242 79.3933 118.229 79.4987 118.203 79.6013C118.157 79.9034 118.094 80.2026 118.013 80.4973C117.728 81.5894 117.313 82.6433 116.777 83.6365C115.977 85.1189 114.933 86.4565 113.69 87.5932C112.96 88.2616 112.164 88.8553 111.316 89.3655C110.389 89.8931 109.435 90.3712 108.458 90.7978C107.507 91.2195 106.605 91.746 105.77 92.3674C105.007 92.952 104.381 93.6979 103.939 94.5517C103.207 96.0234 102.839 97.6496 102.866 99.2932C102.87 100.408 102.939 101.522 103.076 102.629L103.167 103.538C103.203 103.641 103.223 103.749 103.226 103.858Z" fill="#74A5F3"/>
<path d="M126.508 78.9996C126.508 78.9996 126.404 79.1108 126.162 79.222C125.816 79.3774 125.442 79.4619 125.063 79.4705C124.435 79.4708 123.814 79.344 123.236 79.0979C122.658 78.8517 122.136 78.4913 121.702 78.0383C120.869 77.1275 120.235 76.0542 119.838 74.886C119.631 74.4252 119.486 73.9393 119.406 73.4406C119.666 73.8701 119.885 74.3234 120.06 74.7944C120.506 75.898 121.144 76.9142 121.944 77.7963C122.764 78.6483 123.876 79.1597 125.057 79.2285C125.549 79.2174 126.037 79.1405 126.508 78.9996Z" fill="#74A5F3"/>
<path d="M131.054 80.8112C130.75 80.938 130.418 80.9787 130.092 80.9289C129.297 80.8646 128.533 80.5879 127.881 80.1278C127.228 79.6676 126.712 79.0409 126.384 78.3129C126.224 78.0239 126.151 77.6944 126.175 77.3646C126.335 77.6341 126.477 77.9138 126.6 78.2018C126.96 78.8639 127.466 79.4362 128.078 79.876C128.686 80.3067 129.383 80.593 130.118 80.7131C130.432 80.7208 130.745 80.7536 131.054 80.8112Z" fill="#74A5F3"/>
</svg>
