<svg width="250" height="248" viewBox="0 0 250 248" fill="none" xmlns="http://www.w3.org/2000/svg">
<path d="M205.055 15.8014C205.055 15.8014 177.246 -6.91151 141.074 3.16021C104.902 13.2319 89.7578 44.3682 69.0144 65.8146C58.1489 77.0316 42.102 81.1645 29.1942 89.8C-12.0744 117.409 -5.95381 179.488 25.8612 202.904C53.4099 223.175 87.8307 225.296 132.632 210.346C177.434 195.396 209.485 186.409 237.264 143.583C265.043 100.757 239.313 46.6286 205.055 15.8014Z" fill="#74A5F3"/>
<path opacity="0.7" d="M205.055 15.8014C205.055 15.8014 177.246 -6.91151 141.074 3.16021C104.902 13.2319 89.7578 44.3682 69.0144 65.8146C58.1489 77.0316 42.102 81.1645 29.1942 89.8C-12.0744 117.409 -5.95381 179.488 25.8612 202.904C53.4099 223.175 87.8307 225.296 132.632 210.346C177.434 195.396 209.485 186.409 237.264 143.583C265.043 100.757 239.313 46.6286 205.055 15.8014Z" fill="#E3EDFD"/>
<path d="M210.37 247.154H33.418L51.1132 221.702H192.675L210.37 247.154Z" fill="#263238" stroke="#263238" stroke-linecap="round" stroke-linejoin="round"/>
<path d="M216.515 212.964C216.515 212.964 198.614 185.663 201.28 179.397C203.946 173.131 213.4 183.875 213.4 183.875C213.4 183.875 199.523 147.176 208.922 139.116C218.321 131.057 221.454 172.24 221.454 172.24C221.454 172.24 229.938 148.515 236.67 157.466C243.403 166.417 226.368 185.215 226.368 185.215C226.368 185.215 238.004 185.663 234.852 193.275C231.701 200.886 223.217 208.94 223.217 208.94L216.515 212.964Z" fill="#74A5F3"/>
<path d="M211.582 206.697C211.582 206.697 200.844 191.481 206.213 188.348C211.582 185.215 214.266 194.614 214.266 194.614C214.266 194.614 214.715 153.442 223.223 156.575C231.731 159.708 228.592 184.766 228.592 184.766C228.592 184.766 239.331 177.609 238.894 187.899C238.458 198.189 224.12 207.158 224.12 207.158" stroke="#263238" stroke-linecap="round" stroke-linejoin="round"/>
<path d="M221.436 207.594L212.036 197.298" stroke="#263238" stroke-linecap="round" stroke-linejoin="round"/>
<path d="M221.884 212.515L221.435 187.008" stroke="#263238" stroke-linecap="round" stroke-linejoin="round"/>
<path d="M222.332 204.013L230.834 192.826" stroke="#263238" stroke-linecap="round" stroke-linejoin="round"/>
<path d="M229.938 204.91H206.219L208.588 225.944H227.568L229.938 204.91Z" fill="#263238" stroke="#263238" stroke-linecap="round" stroke-linejoin="round"/>
<path d="M26.2308 212.964C26.2308 212.964 8.32955 185.663 10.9959 179.397C13.6623 173.131 23.1159 183.876 23.1159 183.876C23.1159 183.876 9.22037 147.164 18.6194 139.117C28.0185 131.069 31.1515 172.241 31.1515 172.241C31.1515 172.241 39.6355 148.516 46.3682 157.466C53.1008 166.417 36.0662 185.215 36.0662 185.215C36.0662 185.215 47.7014 185.663 44.5502 193.275C41.399 200.886 32.915 208.94 32.915 208.94L26.2308 212.964Z" fill="#74A5F3"/>
<path d="M22.6009 207.037C22.6009 207.037 11.4747 196.583 11.1354 191.887C10.796 187.19 18.2195 192.899 21.2495 194.917C24.2795 196.935 13.4988 181.767 13.8321 170.64C14.1654 159.514 20.2375 163.902 22.2615 168.622C24.2856 173.343 25.2915 177.712 26.3096 178.737C27.3277 179.761 29.0063 170.98 33.3877 173.337C40.3931 177.113 29.0063 189.857 31.3637 192.22C33.721 194.584 39.1205 182.106 41.8172 188.851C44.5139 195.596 33.0483 207.728 33.0483 207.728" stroke="#263238" stroke-linecap="round" stroke-linejoin="round"/>
<path d="M29.6789 206.358L21.2495 181.076" stroke="#263238" stroke-linecap="round" stroke-linejoin="round"/>
<path d="M25.2976 193.547L28.6669 185.796" stroke="#263238" stroke-linecap="round" stroke-linejoin="round"/>
<path d="M18.5527 198.607L27.9942 200.965L32.7149 197.595" stroke="#263238" stroke-linecap="round" stroke-linejoin="round"/>
<path d="M39.6537 204.91H15.9348L18.3043 225.944H37.2842L39.6537 204.91Z" fill="#263238" stroke="#263238" stroke-linecap="round" stroke-linejoin="round"/>
<path d="M107.756 147.164C107.756 147.164 98.866 147.97 95.6361 142.316C92.4061 136.662 98.0601 129.79 92.0001 127.366C85.9401 124.942 78.6681 133.026 66.5481 126.154C54.4281 119.282 60.888 110.398 64.1241 103.532C67.3601 96.666 68.9721 93.43 61.294 88.988C53.616 84.546 45.132 71.614 50.386 59.094C55.6401 46.5741 68.9721 52.222 75.838 45.762C82.704 39.3021 76.644 31.618 76.2441 21.116C75.8441 10.614 89.976 2.52998 103.714 4.55402C117.452 6.57806 120.276 21.116 120.276 30.406C120.276 39.696 134.82 42.126 141.692 31.618C148.564 21.1099 154.212 18.692 164.314 23.134C174.416 27.576 165.932 42.526 170.78 44.95C175.628 47.374 179.664 35.66 194.208 42.526C208.752 49.392 200.674 67.5719 193.402 72.02C182.821 78.4981 195.299 91.0605 197.305 98.7506C200.244 109.992 191.196 118.985 180.07 118.482C162.296 117.67 157.848 114.846 154.212 120.094C150.576 125.342 161.89 126.56 160.272 135.044C158.654 143.528 155.424 146.758 148.152 146.758C140.88 146.758 136.438 140.298 128.76 143.528C121.082 146.758 111.392 149.182 107.756 147.164Z" fill="#263238" stroke="#263238" stroke-linecap="round" stroke-linejoin="round"/>
<path d="M93.715 205.037C92.412 209.871 91.9508 214.893 92.3515 219.884C93.109 227.611 97.048 231.701 114.167 234.277C131.287 236.852 143.104 234.731 152.648 230.186C162.193 225.641 160.03 209.334 157.551 205.595C155.072 201.856 145.528 201.098 130.075 202.462C114.622 203.825 105.077 201.401 99.472 202.31C93.8665 203.219 93.715 205.037 93.715 205.037Z" fill="#696969" stroke="#263238" stroke-linecap="round" stroke-linejoin="round"/>
<path opacity="0.3" d="M148.255 207.461C148.255 207.461 140.074 209.582 134.317 211.097C128.56 212.612 127.954 213.218 133.105 213.824C138.256 214.43 147.952 213.824 147.952 213.824C147.952 213.824 134.317 220.187 127.045 221.702C119.773 223.217 106.441 218.369 104.926 217.157C103.411 215.945 111.289 215.945 113.41 215.036C115.531 214.127 114.319 212.915 106.744 211.703C99.169 210.491 100.684 217.46 107.35 222.308C114.016 227.156 117.955 228.671 126.591 227.156C135.226 225.641 147.043 222.005 150.982 214.733C154.921 207.461 148.255 207.461 148.255 207.461Z" fill="black"/>
<path d="M89.8548 158.951L88.8488 179.191C88.8488 179.191 87.0308 183.894 90.3032 186.912C93.5756 189.929 97.7934 189.039 99.9992 185.124C102.205 181.209 101.902 172.149 102.46 168.568C103.017 164.986 98.66 161.296 95.0785 159.957C91.4971 158.617 89.8548 158.951 89.8548 158.951Z" fill="white" stroke="#263238" stroke-linecap="round" stroke-linejoin="round"/>
<path d="M160.721 158.951L161.726 179.191C161.726 179.191 163.514 183.894 160.272 186.912C157.03 189.929 152.776 189.039 150.54 185.124C148.304 181.209 148.637 172.149 148.079 168.568C147.522 164.986 151.885 161.296 155.46 159.957C159.036 158.617 160.721 158.951 160.721 158.951Z" fill="white" stroke="#263238" stroke-linecap="round" stroke-linejoin="round"/>
<path d="M117.24 128.79C117.24 128.79 117.622 137.213 115.58 140.783C113.537 144.352 107.029 144.134 102.823 144.134C98.6176 144.134 92.3576 147.576 90.3154 151.024C88.7747 153.852 87.4537 156.793 86.3643 159.823L100.399 167.35C100.399 167.35 98.8661 170.289 100.399 174.622C101.932 178.955 104.223 180.621 103.587 182.791C102.95 184.96 94.6544 200.395 93.8908 202.819C93.5049 203.942 93.207 205.092 93 206.261C93 206.261 110.732 209.709 126.166 209.2C141.601 208.691 157.551 205.625 157.551 205.625C157.551 205.625 152.83 197.335 150.279 192.614C147.728 187.893 145.431 183.045 145.94 181.385C146.449 179.724 149.388 175.264 149.261 167.477C149.261 167.477 160.611 164.544 164.823 159.823C164.823 159.823 159.848 147.449 154.745 145.407C149.643 143.364 143.777 145.407 139.595 144.261C135.414 143.116 133.214 141.068 132.578 139.541C131.942 138.013 131.299 130.863 131.554 129.208L117.24 128.79Z" fill="#74A5F3" stroke="#263238" stroke-linecap="round" stroke-linejoin="round"/>
<path opacity="0.3" d="M104.32 178.07C104.32 178.07 100.078 173.525 104.926 172.919C109.774 172.313 116.743 177.161 124.318 178.979C131.893 180.797 140.983 172.616 144.922 173.828C148.861 175.04 146.437 181.1 142.195 183.827C137.953 186.554 126.136 186.251 119.47 185.948C112.804 185.645 109.471 183.827 104.32 178.07Z" fill="#3D3D3D"/>
<path d="M109.774 180.882C109.774 180.882 112.083 182.73 118.258 182.73C124.433 182.73 129.166 179.961 133.493 180.73" stroke="#263238" stroke-linecap="round" stroke-linejoin="round"/>
<path d="M107.156 181.342C107.156 181.342 109.768 183.5 115.155 183.651" stroke="#263238" stroke-linecap="round" stroke-linejoin="round"/>
<path d="M100.399 167.32C100.399 167.32 100.842 165.035 103.769 162.878" stroke="#263238" stroke-linecap="round" stroke-linejoin="round"/>
<path d="M149.261 167.447C149.261 167.447 148.237 163.035 145.467 162.108" stroke="#263238" stroke-linecap="round" stroke-linejoin="round"/>
<path d="M125.403 159.793C135.384 159.399 138.517 149.794 139.498 144.213C135.335 143.061 133.184 141.031 132.548 139.51C131.911 137.989 131.269 130.832 131.523 129.178L117.24 128.79C117.24 128.79 117.622 137.213 115.58 140.783C114.537 142.601 112.319 143.437 109.841 143.813C110.786 147.818 114.622 160.223 125.403 159.793Z" fill="white"/>
<path opacity="0.3" d="M131.772 135.08C131.518 133.124 131.434 131.149 131.523 129.178L117.24 128.79C117.315 130.96 117.24 133.133 117.016 135.292C119.525 136.935 124.609 138.898 131.772 135.08Z" fill="black"/>
<path d="M125.403 159.793C135.384 159.399 138.517 149.794 139.498 144.213C135.335 143.061 133.184 141.031 132.548 139.51C131.911 137.989 131.269 130.832 131.523 129.178L117.24 128.79C117.24 128.79 117.622 137.213 115.58 140.783C114.537 142.601 112.319 143.437 109.841 143.813C110.786 147.818 114.622 160.223 125.403 159.793Z" stroke="#263238" stroke-linecap="round" stroke-linejoin="round"/>
<path d="M111.18 111.41C111.18 111.41 109.362 108.447 107.574 110.253C105.787 112.058 107.574 115.658 108.732 117.331C109.889 119.003 112.077 120.288 112.592 119.646C113.107 119.003 111.18 111.41 111.18 111.41Z" fill="white" stroke="#263238" stroke-linecap="round" stroke-linejoin="round"/>
<path d="M139.104 111.143C139.104 111.143 141.68 107.798 143.098 111.016C144.516 114.234 140.674 119.124 138.856 120.027C137.038 120.93 137.953 117.967 138.08 116.937C138.208 115.907 139.104 111.143 139.104 111.143Z" fill="white" stroke="#263238" stroke-linecap="round" stroke-linejoin="round"/>
<path d="M109.774 100.078C109.774 100.078 110.677 112.307 111.319 118.482C111.962 124.657 114.264 130.196 121.343 132.014C128.421 133.832 134.069 131.372 136.147 127.251C138.226 123.13 139.365 115.282 139.365 108.847V98.5446C139.365 98.5446 121.088 93.3876 109.774 100.078Z" fill="white" stroke="#263238" stroke-linecap="round" stroke-linejoin="round"/>
<path d="M123.403 117.579C124.057 118.013 124.809 118.28 125.591 118.355C126.41 118.27 127.2 118.005 127.906 117.579" stroke="#263238" stroke-linecap="round" stroke-linejoin="round"/>
<path d="M121.73 121.573C121.73 121.573 124.948 123.633 129.608 121.312" stroke="#263238" stroke-linecap="round" stroke-linejoin="round"/>
<path d="M116.585 111.143C116.585 111.143 119.288 110.762 120.827 111.792" stroke="#263238" stroke-width="2" stroke-linecap="round" stroke-linejoin="round"/>
<path d="M129.196 111.658C129.196 111.658 131.772 110.374 134.214 111.531" stroke="#263238" stroke-width="2" stroke-linecap="round" stroke-linejoin="round"/>
<path d="M110.538 109.974C111.42 108.485 112.11 106.891 112.592 105.229C113.374 103.053 113.618 100.72 113.301 98.4295C112.078 98.8704 110.897 99.4221 109.774 100.078C109.774 100.078 110.113 104.871 110.538 109.974Z" fill="#263238" stroke="#263238" stroke-linecap="round" stroke-linejoin="round"/>
<path d="M139.359 108.95C139.359 108.907 139.359 108.871 139.359 108.828V98.5265C139.359 98.5265 138.099 98.175 136.044 97.775C136.178 99.7748 136.777 105.805 139.359 108.95Z" fill="#263238" stroke="#263238" stroke-linecap="round" stroke-linejoin="round"/>
<path d="M115.555 106.641C115.555 106.641 117.743 103.683 122.373 104.58" stroke="#263238" stroke-linecap="round" stroke-linejoin="round"/>
<path d="M128.936 104.968C129.992 104.582 131.133 104.485 132.239 104.689C133.345 104.892 134.377 105.388 135.226 106.126" stroke="#263238" stroke-linecap="round" stroke-linejoin="round"/>
<path d="M126.591 227.156C126.591 227.156 120.682 227.156 110.077 216.703C99.472 206.249 92.806 197.462 84.625 193.826C76.444 190.19 68.566 198.22 69.0205 206.855C69.475 215.491 75.838 227.611 94.7755 234.58C113.713 241.549 129.924 238.67 131.59 238.67C133.257 238.67 141.438 242.761 146.286 243.215C148.954 243.501 151.646 243.501 154.315 243.215C154.315 243.215 155.679 243.367 156.436 243.367C157.194 243.367 158.103 242.458 158.103 242.458C158.103 242.458 159.636 242.857 160.242 241.797C160.848 240.736 160.375 240.337 160.375 240.337C160.375 240.337 162.969 240.561 163.878 238.894C164.787 237.228 163.49 237.294 163.49 237.294C163.49 237.294 165.265 236.949 165.223 235.519C165.256 234.986 165.152 234.454 164.92 233.974C164.92 233.974 165.981 232.307 165.526 230.944C165.072 229.58 163.405 229.126 161.739 229.883C160.072 230.641 152.043 230.338 145.528 229.883C139.014 229.429 126.591 227.156 126.591 227.156Z" fill="white" stroke="#263238" stroke-linecap="round" stroke-linejoin="round"/>
<path d="M123.954 226.55C121.252 225.574 116.537 223.09 110.077 216.721C99.472 206.249 92.806 197.462 84.625 193.826C76.444 190.19 68.566 198.219 69.0205 206.855C69.475 215.49 75.838 227.61 94.7755 234.579C101.839 237.159 109.242 238.689 116.749 239.118C123.633 236.246 124.276 230.186 123.954 226.55Z" fill="#696969"/>
<path opacity="0.3" d="M121.379 235.846C118.391 234.713 114.901 233.501 110.986 232.307C97.0481 228.065 86.7461 222.914 79.7771 215.036C72.8081 207.158 75.2321 197.159 75.2321 197.159L73.6262 195.705C72.0842 197.109 70.8717 198.837 70.0755 200.764C69.2793 202.692 68.9191 204.772 69.0206 206.855C69.4751 215.491 75.8381 227.611 94.7756 234.58C101.839 237.159 109.242 238.689 116.749 239.118C118.531 238.411 120.118 237.289 121.379 235.846Z" fill="black"/>
<path d="M123.954 226.55C121.252 225.574 116.537 223.09 110.077 216.721C99.472 206.249 92.806 197.462 84.625 193.826C76.444 190.19 68.566 198.219 69.0205 206.855C69.475 215.49 75.838 227.61 94.7755 234.579C101.839 237.159 109.242 238.689 116.749 239.118C123.633 236.246 124.276 230.186 123.954 226.55Z" stroke="#263238" stroke-linecap="round" stroke-linejoin="round"/>
<path d="M164.92 233.974C164.455 233.764 163.949 233.662 163.439 233.675C162.929 233.688 162.429 233.814 161.975 234.046" fill="white"/>
<path d="M164.92 233.974C164.455 233.764 163.949 233.662 163.439 233.675C162.929 233.688 162.429 233.814 161.975 234.046" stroke="#263238" stroke-linecap="round" stroke-linejoin="round"/>
<path d="M163.49 237.294C162.707 237.011 161.849 237.011 161.066 237.294H163.49Z" fill="white"/>
<path d="M163.49 237.294C162.707 237.011 161.849 237.011 161.066 237.294" stroke="#263238" stroke-linecap="round" stroke-linejoin="round"/>
<path d="M160.375 240.336C159.815 239.915 159.122 239.711 158.424 239.761L160.375 240.336Z" fill="white"/>
<path d="M160.375 240.336C159.815 239.915 159.122 239.711 158.424 239.761" stroke="#263238" stroke-linecap="round" stroke-linejoin="round"/>
<path d="M157.945 242.306C157.945 242.306 157.297 241.136 156.345 241.136L157.945 242.306Z" fill="white"/>
<path d="M157.945 242.306C157.945 242.306 157.297 241.136 156.345 241.136" stroke="#263238" stroke-linecap="round" stroke-linejoin="round"/>
<path d="M119.87 227.156C119.87 227.156 125.778 227.156 136.383 216.703C146.988 206.249 153.654 197.462 161.835 193.826C170.016 190.19 177.894 198.22 177.44 206.855C176.985 215.491 170.622 227.611 151.685 234.58C132.747 241.549 116.537 238.67 114.87 238.67C113.204 238.67 105.023 242.761 100.175 243.215C97.5061 243.501 94.8144 243.501 92.1455 243.215C92.1455 243.215 90.782 243.367 90.0245 243.367C89.267 243.367 88.358 242.458 88.358 242.458C88.358 242.458 86.8248 242.857 86.2188 241.797C85.6128 240.736 86.0855 240.337 86.0855 240.337C86.0855 240.337 83.4857 240.561 82.5767 238.894C81.6677 237.228 82.9646 237.294 82.9646 237.294C82.9646 237.294 81.189 236.949 81.2314 235.519C81.1963 234.985 81.303 234.452 81.5405 233.974C81.5405 233.974 80.48 232.307 80.9345 230.944C81.389 229.58 83.0555 229.126 84.722 229.883C86.3885 230.641 94.418 230.338 100.932 229.883C107.447 229.429 119.87 227.156 119.87 227.156Z" fill="white" stroke="#263238" stroke-linecap="round" stroke-linejoin="round"/>
<path d="M122.5 226.55C125.197 225.574 129.911 223.09 136.377 216.721C146.982 206.267 153.648 197.48 161.829 193.844C170.01 190.208 177.888 198.238 177.434 206.873C176.979 215.509 170.616 227.629 151.679 234.598C144.614 237.178 137.209 238.708 129.699 239.137C122.821 236.246 122.185 230.186 122.5 226.55Z" fill="#696969"/>
<path opacity="0.3" d="M177.44 206.855C177.755 200.837 174.022 195.123 168.956 193.432L166.738 195.038C166.738 195.038 174.313 199.583 172.495 208.37C170.677 217.157 155.83 226.247 144.013 231.095C138.129 233.401 132.091 235.291 125.942 236.749C127.047 237.755 128.321 238.557 129.705 239.118C137.215 238.689 144.62 237.16 151.685 234.58C170.622 227.611 176.985 215.49 177.44 206.855Z" fill="black"/>
<path d="M122.5 226.55C125.197 225.574 129.911 223.09 136.377 216.721C146.982 206.267 153.648 197.48 161.829 193.844C170.01 190.208 177.888 198.238 177.434 206.873C176.979 215.509 170.616 227.629 151.679 234.598C144.614 237.178 137.209 238.708 129.699 239.137C122.821 236.246 122.185 230.186 122.5 226.55Z" stroke="#263238" stroke-linecap="round" stroke-linejoin="round"/>
<path d="M81.5405 233.974C82.0055 233.764 82.5116 233.662 83.0214 233.675C83.5311 233.688 84.0315 233.814 84.4857 234.046" fill="white"/>
<path d="M81.5405 233.974C82.0055 233.764 82.5116 233.662 83.0214 233.675C83.5311 233.688 84.0315 233.814 84.4857 234.046" stroke="#263238" stroke-linecap="round" stroke-linejoin="round"/>
<path d="M82.9645 237.294C83.7476 237.011 84.6055 237.011 85.3885 237.294H82.9645Z" fill="white"/>
<path d="M82.9645 237.294C83.7476 237.011 84.6055 237.011 85.3885 237.294" stroke="#263238" stroke-linecap="round" stroke-linejoin="round"/>
<path d="M86.0855 240.336C86.6452 239.915 87.3382 239.711 88.0368 239.761L86.0855 240.336Z" fill="white"/>
<path d="M86.0855 240.336C86.6452 239.915 87.3382 239.711 88.0368 239.761" stroke="#263238" stroke-linecap="round" stroke-linejoin="round"/>
<path d="M88.5155 242.306C88.5155 242.306 89.17 241.094 90.1154 241.094L88.5155 242.306Z" fill="white"/>
<path d="M88.5155 242.306C88.5155 242.306 89.17 241.094 90.1154 241.094" stroke="#263238" stroke-linecap="round" stroke-linejoin="round"/>
<path d="M92.4242 180.536C92.4242 180.536 90.188 180.088 86.1642 182.1C82.1404 184.112 78.4438 187.693 76.3167 188.923C74.1896 190.154 72.7413 190.941 70.8627 189.039C68.9841 187.136 64.936 181.876 61.1304 181.991C57.3247 182.106 55.9854 187.36 56.6581 188.475C57.3307 189.59 58.3367 189.82 59.1184 188.923C59.9002 188.027 60.9061 186.239 61.9121 186.912C62.9181 187.584 62.3605 190.717 60.7971 191.275C59.2336 191.832 54.9795 194.517 55.9854 196.086C56.9914 197.656 62.6999 199.777 66.948 200.11C71.196 200.444 76.4561 197.541 79.9224 196.977C83.3887 196.414 92.7878 195.765 97.1449 192.172C98.3998 191.151 99.3615 189.815 99.9321 188.301C100.503 186.788 100.662 185.15 100.393 183.554" fill="white"/>
<path d="M92.4242 180.536C92.4242 180.536 90.188 180.088 86.1642 182.1C82.1404 184.112 78.4438 187.693 76.3167 188.923C74.1896 190.154 72.7413 190.941 70.8627 189.039C68.9841 187.136 64.936 181.876 61.1304 181.991C57.3247 182.106 55.9854 187.36 56.6581 188.475C57.3307 189.59 58.3367 189.82 59.1184 188.923C59.9002 188.027 60.9061 186.239 61.9121 186.912C62.9181 187.584 62.3605 190.717 60.7971 191.275C59.2336 191.832 54.9795 194.517 55.9854 196.086C56.9914 197.656 62.6999 199.777 66.948 200.11C71.196 200.444 76.4561 197.541 79.9224 196.977C83.3887 196.414 92.7878 195.765 97.1449 192.172C98.3998 191.151 99.3615 189.815 99.9321 188.301C100.503 186.788 100.662 185.15 100.393 183.554" stroke="#263238" stroke-linecap="round" stroke-linejoin="round"/>
<path d="M56.5187 193.735C56.5187 193.735 56.0763 188.814 54.6219 188.475C53.1675 188.136 52.9433 191.505 53.1675 194.741C53.3917 197.977 55.1794 198.88 56.2945 197.983C57.4095 197.086 56.5187 193.735 56.5187 193.735Z" fill="white" stroke="#263238" stroke-linecap="round" stroke-linejoin="round"/>
<path d="M60.0154 195.123C60.0154 195.123 60.4396 190.196 59.0701 189.608C57.7005 189.02 56.8885 192.287 56.5309 195.517C56.1734 198.747 57.7853 199.947 59.0458 199.268C60.3063 198.589 60.0154 195.123 60.0154 195.123Z" fill="white" stroke="#263238" stroke-linecap="round" stroke-linejoin="round"/>
<path d="M63.0332 196.25C63.0332 196.25 63.4635 191.329 62.0879 190.741C60.7123 190.154 59.9063 193.42 59.5548 196.65C59.2033 199.88 60.8032 201.08 62.0636 200.395C63.3241 199.71 63.0332 196.25 63.0332 196.25Z" fill="white" stroke="#263238" stroke-linecap="round" stroke-linejoin="round"/>
<path d="M70.9476 199.886C68.917 200.823 66.6991 201.283 64.4635 201.231C64.3339 200.303 64.2591 199.368 64.2392 198.432C64.2392 197.22 66.8087 192.172 70.6144 192.505" fill="white"/>
<path d="M70.9476 199.886C68.917 200.823 66.6991 201.283 64.4635 201.231C64.3339 200.303 64.2591 199.368 64.2392 198.432C64.2392 197.22 66.8087 192.172 70.6144 192.505" stroke="#263238" stroke-linecap="round" stroke-linejoin="round"/>
<path d="M66.239 198.171C66.239 198.171 67.6631 194.317 66.4874 193.42C65.3118 192.523 63.8635 194.911 62.8514 197.42C61.8394 199.928 63.1181 201.395 64.4513 201.231C65.7845 201.068 66.239 198.171 66.239 198.171Z" fill="white" stroke="#263238" stroke-linecap="round" stroke-linejoin="round"/>
<path d="M158.145 180.536C158.145 180.536 160.381 180.088 164.411 182.1C168.441 184.112 172.125 187.693 174.252 188.923C176.38 190.154 177.834 190.941 179.737 189.039C181.64 187.136 185.663 181.876 189.463 181.991C193.263 182.106 194.608 187.36 193.941 188.475C193.275 189.59 192.263 189.82 191.481 188.923C190.699 188.027 189.663 186.239 188.681 186.912C187.7 187.584 188.233 190.717 189.802 191.275C191.372 191.832 195.62 194.517 194.608 196.086C193.596 197.656 187.9 199.777 183.652 200.11C179.403 200.444 174.143 197.541 170.671 196.977C167.199 196.414 157.812 195.765 153.448 192.172C152.194 191.151 151.233 189.815 150.663 188.301C150.093 186.787 149.936 185.149 150.206 183.554" fill="white"/>
<path d="M158.145 180.536C158.145 180.536 160.381 180.088 164.411 182.1C168.441 184.112 172.125 187.693 174.252 188.923C176.38 190.154 177.834 190.941 179.737 189.039C181.64 187.136 185.663 181.876 189.463 181.991C193.263 182.106 194.608 187.36 193.941 188.475C193.275 189.59 192.263 189.82 191.481 188.923C190.699 188.027 189.663 186.239 188.681 186.912C187.7 187.584 188.233 190.717 189.802 191.275C191.372 191.832 195.62 194.517 194.608 196.086C193.596 197.656 187.9 199.777 183.652 200.11C179.403 200.444 174.143 197.541 170.671 196.977C167.199 196.414 157.812 195.765 153.448 192.172C152.194 191.151 151.233 189.815 150.663 188.301C150.093 186.787 149.936 185.149 150.206 183.554" stroke="#263238" stroke-linecap="round" stroke-linejoin="round"/>
<path d="M194.05 193.735C194.05 193.735 194.499 188.814 195.953 188.475C197.408 188.136 197.632 191.505 197.408 194.741C197.183 197.977 195.396 198.88 194.275 197.983C193.154 197.086 194.05 193.735 194.05 193.735Z" fill="white" stroke="#263238" stroke-linecap="round" stroke-linejoin="round"/>
<path d="M190.56 195.123C190.56 195.123 190.13 190.196 191.499 189.608C192.869 189.02 193.687 192.287 194.038 195.517C194.39 198.747 192.796 199.947 191.53 199.28C190.263 198.613 190.56 195.123 190.56 195.123Z" fill="white" stroke="#263238" stroke-linecap="round" stroke-linejoin="round"/>
<path d="M187.536 196.25C187.536 196.25 187.112 191.329 188.481 190.741C189.851 190.154 190.669 193.42 191.02 196.65C191.372 199.88 189.766 201.08 188.512 200.395C187.257 199.71 187.536 196.25 187.536 196.25Z" fill="white" stroke="#263238" stroke-linecap="round" stroke-linejoin="round"/>
<path d="M179.622 199.886C181.66 200.826 183.886 201.286 186.13 201.231C186.259 200.303 186.334 199.368 186.354 198.432C186.354 197.22 183.779 192.172 179.973 192.505" fill="white"/>
<path d="M179.622 199.886C181.66 200.826 183.886 201.286 186.13 201.231C186.259 200.303 186.334 199.368 186.354 198.432C186.354 197.22 183.779 192.172 179.973 192.505" stroke="#263238" stroke-linecap="round" stroke-linejoin="round"/>
<path d="M184.312 198.171C184.312 198.171 182.888 194.317 184.064 193.42C185.239 192.523 186.682 194.911 187.7 197.42C188.718 199.928 187.433 201.395 186.1 201.231C184.767 201.068 184.312 198.171 184.312 198.171Z" fill="white" stroke="#263238" stroke-linecap="round" stroke-linejoin="round"/>
<path d="M136.438 92.624C135.014 90.5576 132.802 92.5695 132.232 93.1876C131.626 92.5816 129.451 90.5576 128.033 92.624C126.487 94.8723 132.184 99.5566 132.232 99.5324C132.281 99.5082 137.965 94.8723 136.438 92.624Z" stroke="#74A5F3" stroke-linecap="round" stroke-linejoin="round"/>
<path d="M122.288 94.4784C120.509 92.0837 118.113 90.2175 115.355 89.0789C110.919 87.3457 113.81 83.8794 115.737 84.8369C116.981 85.4477 118.269 85.9623 119.591 86.3762C119.591 86.3762 114.58 82.3281 114.392 78.8618C114.204 75.3954 119.591 79.8253 119.591 79.8253C119.591 79.8253 113.04 70.808 115.161 69.2324C117.282 67.6568 119.203 70.5838 120.555 73.0866C121.514 74.957 122.35 76.8882 123.057 78.8678C123.057 78.8678 122.676 72.5109 124.797 74.438C126.918 76.365 125.566 86.0004 125.566 86.0004C125.566 86.0004 128.457 78.1224 129.808 82.3644C131.16 86.6064 122.87 93.8966 122.288 94.4784Z" stroke="#74A5F3" stroke-linecap="round" stroke-linejoin="round"/>
<path d="M122.288 94.4784C122.288 94.4784 125.372 85.2247 119.016 73.2684" stroke="#74A5F3" stroke-linecap="round" stroke-linejoin="round"/>
<path d="M111.713 33.0481C109.504 33.0314 107.332 33.6158 105.429 34.7389C102.399 36.5569 101.672 33.3269 103.102 32.6179C104.017 32.1543 104.896 31.6236 105.732 31.0302C105.732 31.0302 101.102 32.1816 98.969 30.7453C96.8359 29.3091 101.86 28.1032 101.86 28.1032C101.86 28.1032 93.5877 27.9335 93.6241 25.9943C93.6604 24.0551 96.2238 24.1763 98.3084 24.5278C99.8413 24.7962 101.355 25.1625 102.841 25.6246C102.841 25.6246 98.9144 23.0128 100.993 22.5946C103.072 22.1765 108.168 27.2972 108.168 27.2972C108.168 27.2972 104.793 22.0674 107.895 23.1582C110.998 24.249 111.628 32.4482 111.713 33.0481Z" stroke="#74A5F3" stroke-linecap="round" stroke-linejoin="round"/>
<path d="M111.713 33.0481C111.713 33.0481 107.629 27.0972 97.7327 25.5216" stroke="#74A5F3" stroke-linecap="round" stroke-linejoin="round"/>
<path d="M149.988 71.3352C149.816 71.3387 149.646 71.3611 149.479 71.4019C149.735 71.1575 149.929 70.855 150.044 70.5201C150.16 70.1851 150.193 69.8274 150.141 69.477C150.089 69.1267 149.953 68.7939 149.746 68.5067C149.539 68.2195 149.266 67.9863 148.95 67.8266C148.633 67.667 148.283 67.5856 147.929 67.5894C147.575 67.5931 147.227 67.6818 146.914 67.8481C146.602 68.0144 146.333 68.2533 146.132 68.5448C145.931 68.8363 145.803 69.1719 145.758 69.5233C145.616 69.2239 145.409 68.9602 145.151 68.7518C144.894 68.5433 144.593 68.3953 144.27 68.3188C143.948 68.2423 143.613 68.2392 143.289 68.3097C142.965 68.3803 142.661 68.5226 142.4 68.7263C142.139 68.93 141.926 69.1898 141.779 69.4865C141.631 69.7832 141.552 70.1093 141.548 70.4406C141.543 70.7719 141.613 71.1 141.753 71.4006C141.892 71.7013 142.097 71.9668 142.353 72.1776C142.067 72.3208 141.815 72.5243 141.615 72.7742C141.416 73.024 141.273 73.3141 141.196 73.6246C141.119 73.935 141.111 74.2584 141.171 74.5725C141.231 74.8866 141.359 75.1838 141.545 75.4437C141.732 75.7037 141.972 75.9201 142.25 76.0782C142.528 76.2362 142.837 76.3321 143.156 76.3592C143.474 76.3862 143.795 76.3439 144.096 76.2351C144.397 76.1262 144.67 75.9535 144.898 75.7287C144.948 76.284 145.206 76.7998 145.621 77.1723C146.036 77.5447 146.577 77.7463 147.134 77.7363C147.692 77.7263 148.225 77.5056 148.626 77.1185C149.027 76.7314 149.267 76.2067 149.297 75.6499C149.52 75.7245 149.753 75.7653 149.988 75.7711C150.576 75.7711 151.14 75.5375 151.556 75.1215C151.972 74.7056 152.206 74.1414 152.206 73.5532C152.206 72.9649 151.972 72.4008 151.556 71.9849C151.14 71.5689 150.576 71.3352 149.988 71.3352V71.3352Z" stroke="#74A5F3" stroke-linecap="round" stroke-linejoin="round"/>
<path d="M146.213 74.6137C147.059 74.6137 147.746 73.9273 147.746 73.0805C147.746 72.2337 147.059 71.5473 146.213 71.5473C145.366 71.5473 144.68 72.2337 144.68 73.0805C144.68 73.9273 145.366 74.6137 146.213 74.6137Z" stroke="#74A5F3" stroke-linecap="round" stroke-linejoin="round"/>
<path d="M105.641 88.782C105.467 88.7851 105.295 88.8075 105.126 88.8486C105.384 88.6048 105.579 88.3026 105.696 87.9674C105.812 87.6322 105.846 87.2738 105.795 86.9227C105.744 86.5715 105.609 86.2378 105.402 85.9497C105.195 85.6616 104.921 85.4276 104.605 85.2675C104.288 85.1073 103.937 85.0257 103.582 85.0296C103.228 85.0334 102.879 85.1226 102.566 85.2895C102.253 85.4565 101.984 85.6963 101.783 85.9888C101.582 86.2813 101.455 86.6178 101.411 86.97C101.194 86.5178 100.829 86.1528 100.377 85.9351C99.9251 85.7174 99.4125 85.6598 98.9234 85.7718C98.4343 85.8839 97.9979 86.1589 97.6857 86.5517C97.3735 86.9445 97.2042 87.4318 97.2055 87.9336C97.206 88.2569 97.2779 88.5762 97.4162 88.8685C97.5545 89.1608 97.7557 89.4189 98.0054 89.6243C97.7195 89.7676 97.468 89.9711 97.2683 90.2209C97.0686 90.4707 96.9255 90.7608 96.8488 91.0713C96.772 91.3818 96.7636 91.7052 96.8239 92.0193C96.8842 92.3333 97.0119 92.6306 97.1983 92.8905C97.3846 93.1504 97.625 93.3669 97.903 93.5249C98.1811 93.6829 98.4901 93.7788 98.8087 93.8059C99.1274 93.833 99.4481 93.7907 99.7488 93.6818C100.05 93.573 100.323 93.4002 100.551 93.1755C100.609 93.7234 100.871 94.2295 101.284 94.594C101.698 94.9586 102.232 95.1553 102.783 95.1455C103.334 95.1356 103.862 94.9198 104.262 94.5407C104.661 94.1615 104.905 93.6464 104.944 93.0967C105.168 93.1747 105.404 93.2157 105.641 93.2179C106.229 93.2179 106.793 92.9842 107.209 92.5683C107.625 92.1523 107.859 91.5882 107.859 90.9999C107.859 90.4117 107.625 89.8476 107.209 89.4316C106.793 89.0157 106.229 88.782 105.641 88.782V88.782Z" stroke="#74A5F3" stroke-linecap="round" stroke-linejoin="round"/>
<path d="M101.86 92.0604C102.706 92.0604 103.393 91.374 103.393 90.5272C103.393 89.6805 102.706 88.994 101.86 88.994C101.013 88.994 100.326 89.6805 100.326 90.5272C100.326 91.374 101.013 92.0604 101.86 92.0604Z" stroke="#74A5F3" stroke-linecap="round" stroke-linejoin="round"/>
<path d="M104.429 61.2211C104.321 61.2228 104.213 61.2371 104.108 61.2635C104.244 61.1365 104.353 60.9826 104.427 60.8115C104.501 60.6405 104.539 60.456 104.538 60.2696C104.555 59.9095 104.429 59.5571 104.189 59.2886C103.948 59.02 103.612 58.8566 103.252 58.8335C102.892 58.8105 102.538 58.9297 102.265 59.1654C101.992 59.4011 101.822 59.7345 101.793 60.0939C101.704 59.9078 101.575 59.744 101.415 59.6145C101.254 59.4851 101.067 59.3933 100.866 59.3461C100.666 59.2988 100.457 59.2972 100.256 59.3414C100.054 59.3856 99.8656 59.4745 99.7032 59.6015C99.5409 59.7285 99.4092 59.8903 99.3178 60.0751C99.2264 60.2598 99.1777 60.4627 99.1753 60.6688C99.1728 60.8749 99.2168 61.0789 99.3038 61.2658C99.3908 61.4526 99.5187 61.6175 99.678 61.7483C99.4504 61.859 99.2583 62.0312 99.1233 62.2454C98.9884 62.4595 98.9161 62.7072 98.9144 62.9603C98.9062 63.239 98.9826 63.5137 99.1334 63.7483C99.2842 63.9828 99.5025 64.1662 99.7595 64.2744C100.017 64.3826 100.3 64.4105 100.573 64.3544C100.847 64.2983 101.096 64.1609 101.29 63.9602C101.328 64.3011 101.492 64.6154 101.75 64.8414C102.008 65.0675 102.341 65.1891 102.684 65.1822C103.027 65.1754 103.355 65.0407 103.604 64.8045C103.853 64.5684 104.004 64.2478 104.029 63.9056C104.167 63.9568 104.312 63.9834 104.459 63.9844C104.826 63.9844 105.177 63.8389 105.436 63.5797C105.695 63.3206 105.841 62.9692 105.841 62.6027C105.841 62.2363 105.695 61.8849 105.436 61.6257C105.177 61.3666 104.826 61.2211 104.459 61.2211H104.429Z" stroke="#74A5F3" stroke-linecap="round" stroke-linejoin="round"/>
<path d="M102.078 63.2633C102.606 63.2633 103.035 62.8346 103.035 62.3058C103.035 61.777 102.606 61.3483 102.078 61.3483C101.549 61.3483 101.12 61.777 101.12 62.3058C101.12 62.8346 101.549 63.2633 102.078 63.2633Z" stroke="#74A5F3" stroke-linecap="round" stroke-linejoin="round"/>
<path d="M91.9394 103.532C91.8331 103.534 91.7273 103.548 91.6243 103.574C91.7587 103.446 91.8656 103.292 91.9385 103.121C92.0115 102.95 92.0489 102.766 92.0485 102.581C92.0469 102.232 91.9131 101.897 91.6741 101.644C91.4351 101.39 91.1087 101.236 90.761 101.214C90.4132 101.192 90.0699 101.302 89.8004 101.523C89.531 101.744 89.3555 102.059 89.3094 102.405C89.22 102.22 89.0904 102.058 88.9301 101.93C88.7699 101.802 88.583 101.711 88.3831 101.664C88.1833 101.618 87.9756 101.617 87.7753 101.661C87.5749 101.705 87.3869 101.793 87.2252 101.92C87.0634 102.046 86.9319 102.207 86.8403 102.39C86.7487 102.574 86.6993 102.775 86.6958 102.981C86.6923 103.186 86.7347 103.389 86.8199 103.576C86.9051 103.762 87.031 103.928 87.1884 104.059C87.0113 104.149 86.8558 104.275 86.7323 104.431C86.6089 104.586 86.5204 104.766 86.4731 104.959C86.4258 105.151 86.4206 105.352 86.4581 105.547C86.4955 105.741 86.5746 105.926 86.69 106.087C86.8054 106.248 86.9542 106.383 87.1265 106.481C87.2987 106.58 87.4901 106.64 87.6877 106.657C87.8853 106.675 88.0843 106.649 88.2711 106.583C88.4579 106.516 88.6281 106.41 88.77 106.271C88.8082 106.612 88.9724 106.926 89.2304 107.152C89.4884 107.378 89.8215 107.5 90.1645 107.493C90.5074 107.486 90.8354 107.352 91.0842 107.115C91.3329 106.879 91.4845 106.559 91.5091 106.217C91.647 106.267 91.7925 106.294 91.9394 106.295C92.3058 106.295 92.6573 106.15 92.9164 105.891C93.1755 105.632 93.3211 105.28 93.3211 104.914C93.3211 104.547 93.1755 104.196 92.9164 103.937C92.6573 103.678 92.3058 103.532 91.9394 103.532V103.532Z" stroke="#74A5F3" stroke-linecap="round" stroke-linejoin="round"/>
<path d="M89.5881 105.574C90.1169 105.574 90.5456 105.146 90.5456 104.617C90.5456 104.088 90.1169 103.659 89.5881 103.659C89.0593 103.659 88.6306 104.088 88.6306 104.617C88.6306 105.146 89.0593 105.574 89.5881 105.574Z" stroke="#74A5F3" stroke-linecap="round" stroke-linejoin="round"/>
<path d="M118.761 38.2597C118.655 38.2615 118.549 38.2758 118.446 38.3022C118.604 38.1502 118.724 37.9624 118.796 37.7545C118.867 37.5466 118.887 37.3246 118.855 37.1072C118.823 36.8898 118.739 36.6833 118.611 36.505C118.482 36.3266 118.313 36.1816 118.117 36.0821C117.921 35.9826 117.704 35.9315 117.485 35.933C117.265 35.9346 117.049 35.9888 116.854 36.091C116.66 36.1933 116.492 36.3407 116.367 36.5208C116.241 36.701 116.16 36.9087 116.131 37.1265C115.996 36.8433 115.769 36.6146 115.487 36.4783C115.204 36.342 114.884 36.3062 114.578 36.3769C114.273 36.4477 114.001 36.6206 113.807 36.8671C113.613 37.1137 113.509 37.419 113.513 37.7325C113.513 37.9332 113.557 38.1314 113.643 38.3128C113.729 38.4941 113.854 38.654 114.01 38.7809C113.73 38.9174 113.505 39.1447 113.371 39.4258C113.237 39.7068 113.203 40.0249 113.273 40.3281C113.344 40.6312 113.515 40.9016 113.758 41.095C114.002 41.2884 114.305 41.3934 114.616 41.3928C114.795 41.3929 114.972 41.3577 115.138 41.289C115.303 41.2204 115.453 41.1197 115.579 40.9928C115.617 41.3336 115.781 41.6481 116.038 41.8747C116.295 42.1012 116.628 42.2234 116.971 42.2173C117.314 42.2112 117.642 42.0773 117.891 41.8419C118.141 41.6064 118.293 41.2863 118.318 40.9443C118.457 40.992 118.602 41.0186 118.749 41.0231C119.115 41.0231 119.467 40.8775 119.726 40.6184C119.985 40.3593 120.13 40.0079 120.13 39.6414C120.13 39.275 119.985 38.9235 119.726 38.6644C119.467 38.4053 119.115 38.2597 118.749 38.2597H118.761Z" stroke="#74A5F3" stroke-linecap="round" stroke-linejoin="round"/>
<path d="M116.41 40.3019C116.938 40.3019 117.367 39.8733 117.367 39.3445C117.367 38.8157 116.938 38.387 116.41 38.387C115.881 38.387 115.452 38.8157 115.452 39.3445C115.452 39.8733 115.881 40.3019 116.41 40.3019Z" stroke="#74A5F3" stroke-linecap="round" stroke-linejoin="round"/>
<path d="M148.364 46.9801C148.256 46.9818 148.148 46.9961 148.043 47.0225C148.179 46.8955 148.288 46.7416 148.362 46.5706C148.436 46.3995 148.474 46.215 148.473 46.0287C148.49 45.6685 148.364 45.3162 148.124 45.0476C147.883 44.779 147.547 44.6156 147.187 44.5925C146.827 44.5695 146.472 44.6887 146.2 44.9244C145.927 45.1601 145.757 45.4935 145.728 45.8529C145.639 45.6668 145.51 45.503 145.35 45.3735C145.189 45.2441 145.002 45.1523 144.801 45.1051C144.601 45.0578 144.392 45.0562 144.191 45.1004C143.989 45.1446 143.801 45.2335 143.638 45.3605C143.476 45.4875 143.344 45.6493 143.253 45.8341C143.161 46.0188 143.113 46.2217 143.11 46.4278C143.108 46.6339 143.152 46.8379 143.239 47.0248C143.326 47.2116 143.454 47.3765 143.613 47.5073C143.385 47.618 143.193 47.7902 143.058 48.0044C142.923 48.2185 142.851 48.4662 142.849 48.7193C142.85 48.9907 142.93 49.256 143.081 49.4821C143.231 49.7081 143.445 49.8848 143.695 49.9902C143.945 50.0955 144.221 50.1249 144.487 50.0745C144.754 50.0242 145 49.8964 145.195 49.7071C145.233 50.048 145.397 50.3622 145.655 50.5883C145.913 50.8144 146.246 50.9359 146.589 50.9291C146.932 50.9223 147.26 50.7876 147.509 50.5514C147.758 50.3153 147.909 49.9947 147.934 49.6525C148.071 49.7037 148.217 49.7303 148.364 49.7313C148.73 49.7313 149.082 49.5857 149.341 49.3266C149.6 49.0675 149.746 48.7161 149.746 48.3496C149.746 47.9832 149.6 47.6317 149.341 47.3726C149.082 47.1135 148.73 46.968 148.364 46.968V46.9801Z" stroke="#74A5F3" stroke-linecap="round" stroke-linejoin="round"/>
<path d="M146.013 49.0223C146.541 49.0223 146.97 48.5936 146.97 48.0648C146.97 47.536 146.541 47.1073 146.013 47.1073C145.484 47.1073 145.055 47.536 145.055 48.0648C145.055 48.5936 145.484 49.0223 146.013 49.0223Z" stroke="#74A5F3" stroke-linecap="round" stroke-linejoin="round"/>
<path d="M130.378 64.748C131.149 62.652 132.096 60.6248 133.208 58.688C134.62 56.464 139.668 56.064 139.668 56.064C139.668 56.064 137.044 60.306 135.832 62.324C134.62 64.342 130.378 64.748 130.378 64.748Z" stroke="#74A5F3" stroke-linecap="round" stroke-linejoin="round"/>
<path d="M130.378 64.748C130.378 64.748 134.214 59.294 138.662 56.67" stroke="#74A5F3" stroke-linecap="round" stroke-linejoin="round"/>
<path d="M72.1231 84.4066C74.3012 83.9132 76.5169 83.6031 78.7467 83.4795C81.3768 83.4795 84.4734 87.4669 84.4734 87.4669C84.4734 87.4669 79.48 87.576 77.1287 87.6609C74.7774 87.7457 72.1231 84.4066 72.1231 84.4066Z" stroke="#74A5F3" stroke-linecap="round" stroke-linejoin="round"/>
<path d="M72.1231 84.4066C72.1231 84.4066 78.7891 84.6551 83.4129 86.9458" stroke="#74A5F3" stroke-linecap="round" stroke-linejoin="round"/>
<path d="M162.029 79.795C162.029 79.795 161.048 75.2318 158.908 75.4984C156.769 75.7651 158.496 81.1342 158.496 81.1342C158.496 81.1342 155.684 81.9342 155.818 83.1401C155.951 84.3461 157.951 83.3401 159.684 83.0735C159.684 83.0735 158.987 86.2065 160.86 86.7095C162.732 87.2124 162.375 82.5765 162.375 82.5765C162.375 82.5765 166.556 83.431 167.732 81.5585C169.095 79.4071 163.769 79.5223 162.029 79.795Z" stroke="#74A5F3" stroke-linecap="round" stroke-linejoin="round"/>
<path d="M162.029 78.3891C162.029 78.3891 158.127 84.3218 158.357 84.946C158.587 85.5702 162.811 79.795 163.514 79.092C164.217 78.3891 162.969 77.371 162.029 78.3891Z" fill="#263238" stroke="#74A5F3" stroke-linecap="round" stroke-linejoin="round"/>
<path d="M163.514 79.092C163.514 79.092 166.089 76.7468 167.338 77.6861C168.586 78.6254 167.108 78.7769 166.95 78.4678" stroke="#74A5F3" stroke-linecap="round" stroke-linejoin="round"/>
<path d="M162.266 77.9164C162.266 77.9164 162.969 74.4804 162.187 73.7774C161.405 73.0744 161.09 74.0137 161.641 74.5591" stroke="#74A5F3" stroke-linecap="round" stroke-linejoin="round"/>
<path d="M124.924 51.1494C122.839 48.1193 119.615 51.0706 118.749 51.9735C117.876 51.0706 114.652 48.1072 112.568 51.1494C110.295 54.4521 118.67 61.3362 118.749 61.3059C118.828 61.2756 127.184 54.446 124.924 51.1494Z" stroke="#74A5F3" stroke-linecap="round" stroke-linejoin="round"/>
<path d="M95.9996 39.3324C93.8422 38.0476 92.6969 40.7928 92.4121 41.5927C91.6182 41.2837 88.7761 40.3807 88.3579 42.8411C87.8974 45.5257 95.0239 47.4043 95.0663 47.3619C95.1088 47.3194 98.3388 40.7262 95.9996 39.3324Z" stroke="#74A5F3" stroke-linecap="round" stroke-linejoin="round"/>
<path d="M75.8864 64.3238C73.3836 64.1359 73.5775 67.1053 73.6866 67.9598C72.8382 68.0386 69.8931 68.4809 70.6142 70.8807C71.3959 73.4926 78.6195 71.9897 78.6316 71.9352C78.6437 71.8806 78.6013 64.5298 75.8864 64.3238Z" stroke="#74A5F3" stroke-linecap="round" stroke-linejoin="round"/>
<path d="M155.327 103.58C157.315 102.047 155.188 99.9445 154.545 99.4112C155.151 98.8052 157.024 96.4903 154.885 95.1692C152.558 93.7451 148.182 99.6839 148.219 99.7324C148.255 99.7808 153.17 105.241 155.327 103.58Z" stroke="#74A5F3" stroke-linecap="round" stroke-linejoin="round"/>
<path d="M143.74 62.7967C145.098 61.5365 146.616 60.4607 148.255 59.597" stroke="#74A5F3" stroke-linecap="round" stroke-linejoin="round"/>
<path d="M132.499 87.17C132.499 87.17 133.917 75.1045 140.559 66.3175" stroke="#74A5F3" stroke-linecap="round" stroke-linejoin="round"/>
<path d="M114.586 92.2907C115.158 93.1773 115.676 94.0982 116.137 95.048" stroke="#74A5F3" stroke-linecap="round" stroke-linejoin="round"/>
<path d="M92.0242 77.9709C92.8962 78.6677 93.8769 79.2163 94.9269 79.595C99.7203 81.413 106.411 83.231 111.616 88.5759" stroke="#74A5F3" stroke-linecap="round" stroke-linejoin="round"/>
<path d="M89.7759 72.323C89.5402 73.5941 89.7544 74.9075 90.3819 76.0378" stroke="#74A5F3" stroke-linecap="round" stroke-linejoin="round"/>
<path d="M145.776 40.8474C147.3 39.463 148.551 37.8065 149.467 35.963" stroke="#74A5F3" stroke-linecap="round" stroke-linejoin="round"/>
<path d="M127.821 58.5547C128.808 56.075 130.182 53.7677 131.893 51.719C135.341 47.6164 139.056 45.659 142.359 43.4471" stroke="#74A5F3" stroke-linecap="round" stroke-linejoin="round"/>
<path d="M125.833 68.384C125.833 66.9609 125.965 65.5408 126.227 64.142" stroke="#74A5F3" stroke-linecap="round" stroke-linejoin="round"/>
<path d="M144.728 92.9755C147.249 91.7029 150.788 90.7454 155.527 91.109C167.344 92.018 172.798 95.654 177.949 88.685" stroke="#74A5F3" stroke-linecap="round" stroke-linejoin="round"/>
<path d="M139.468 97.472C140.012 96.631 140.673 95.8719 141.431 95.2177" stroke="#74A5F3" stroke-linecap="round" stroke-linejoin="round"/>
<path d="M164.593 65.5661H162.975C161.999 65.5661 160.217 64.4329 161.029 63.4572C161.841 62.4816 164.593 64.7541 164.593 64.7541L162.169 57.1366L167.356 54.7126L169.465 61.8453C169.465 61.8453 166.223 60.5484 165.896 62.0028C165.568 63.4572 168.004 63.2997 169.465 62.6512" stroke="#74A5F3" stroke-linecap="round" stroke-linejoin="round"/>
<path d="M162.647 58.7547L167.671 56.3246" stroke="#74A5F3" stroke-linecap="round" stroke-linejoin="round"/>
<path d="M175.737 63.1421H174.67C174.022 63.1421 172.852 62.3907 173.38 61.7483C173.907 61.1059 175.737 62.6028 175.737 62.6028L174.131 57.5669L177.561 55.961L178.955 60.6757C178.955 60.6757 176.81 59.8212 176.598 60.7848C176.385 61.7483 177.991 61.6392 178.955 61.209" stroke="#74A5F3" stroke-linecap="round" stroke-linejoin="round"/>
<path d="M174.452 58.6395L177.773 57.0336" stroke="#74A5F3" stroke-linecap="round" stroke-linejoin="round"/>
<path d="M81.5041 57.6881H80.4375C79.7891 57.6881 78.6195 56.9367 79.1467 56.2943C79.6739 55.6519 81.5041 57.1488 81.5041 57.1488L79.8982 52.1129L83.3281 50.507L84.7219 55.2217C84.7219 55.2217 82.5767 54.3672 82.3646 55.3308C82.1525 56.2943 83.7584 56.1852 84.7219 55.755" stroke="#74A5F3" stroke-linecap="round" stroke-linejoin="round"/>
<path d="M80.2194 53.1855L83.5403 51.5796" stroke="#74A5F3" stroke-linecap="round" stroke-linejoin="round"/>
<path d="M183.1 74.7228C183.1 74.7228 187.487 73.4017 186.79 70.808C186.184 68.6143 184.136 70.808 184.136 70.808C184.136 70.808 185.409 68.7476 183.53 67.778C181.652 66.8084 181.106 69.4627 181.106 69.4627C181.106 69.4627 180.73 67.0023 179.022 68.1355C177.313 69.2688 180.918 75.3409 180.918 75.3409L183.1 74.7228Z" stroke="#74A5F3" stroke-linecap="round" stroke-linejoin="round"/>
<path d="M177.476 84.0855C179.192 81.4374 180.353 78.4687 180.888 75.3591L182.754 69.59" stroke="#74A5F3" stroke-linecap="round" stroke-linejoin="round"/>
<path d="M179.749 79.5344C179.931 78.3405 179.661 77.1217 178.991 76.1166C178.322 74.9927 177.494 73.972 176.531 73.0865C176.531 73.0865 175.961 75.1712 176.337 76.4983C176.713 77.8255 179.749 79.5344 179.749 79.5344Z" stroke="#74A5F3" stroke-linecap="round" stroke-linejoin="round"/>
<path d="M179.185 81.0494C179.922 80.4163 180.868 80.0794 181.84 80.104H185.439C185.439 80.104 180.888 83.7037 179.185 81.0494Z" stroke="#74A5F3" stroke-linecap="round" stroke-linejoin="round"/>
<path d="M180.306 70.5656L180.876 75.05L184.057 72.6866" stroke="#74A5F3" stroke-linecap="round" stroke-linejoin="round"/>
<path d="M80.9708 94.2784C80.9708 94.2784 78.0983 90.7151 75.9592 92.3331C74.1412 93.7087 76.9591 94.7935 76.9591 94.7935C76.9591 94.7935 74.5654 94.3935 74.4018 96.5085C74.2381 98.6234 76.8682 98.078 76.8682 98.078C76.8682 98.078 74.729 99.3567 76.4258 100.502C78.1226 101.647 82.3888 96.0297 82.3888 96.0297L80.9708 94.2784Z" stroke="#74A5F3" stroke-linecap="round" stroke-linejoin="round"/>
<path d="M91.7515 95.9449C88.6547 95.3501 85.4693 95.3914 82.3888 96.0661L76.3288 96.5145" stroke="#74A5F3" stroke-linecap="round" stroke-linejoin="round"/>
<path d="M86.6793 95.551C85.5059 95.8322 84.4795 96.541 83.8008 97.5387C83.0118 98.5827 82.3789 99.7361 81.9222 100.963C81.9222 100.963 84.0675 100.708 85.1522 99.8536C86.2369 98.9991 86.6793 95.551 86.6793 95.551Z" stroke="#74A5F3" stroke-linecap="round" stroke-linejoin="round"/>
<path d="M88.2974 95.5086C87.4321 95.0648 86.7625 94.3154 86.4188 93.4057C85.7825 91.8241 85.0674 90.0667 85.0674 90.0667C85.0674 90.0667 90.1154 92.927 88.2974 95.5086Z" stroke="#74A5F3" stroke-linecap="round" stroke-linejoin="round"/>
<path d="M78.165 98.4113L82.104 96.1933L78.7164 94.139" stroke="#74A5F3" stroke-linecap="round" stroke-linejoin="round"/>
<path d="M110.283 79.0435C110.102 78.6295 109.9 78.225 109.677 77.8315C108.592 75.8378 106.998 74.0865 104.496 74.444C100.254 75.05 108.132 81.716 109.55 81.916C111.295 82.1645 110.847 80.3889 110.283 79.0435Z" fill="#74A5F3"/>
<path d="M107.053 53.9976C106.835 53.4825 106.605 53.034 106.447 52.7856C105.356 50.7858 103.768 49.0405 101.266 49.398C97.0237 50.004 104.902 56.67 106.32 56.87C108.065 57.1185 107.617 55.3368 107.053 53.9976Z" fill="#74A5F3"/>
<path d="M149.691 81.5039C149.152 81.6614 148.679 81.8433 148.419 81.9463C146.31 82.7947 144.389 84.1764 144.455 86.7034C144.57 90.9878 152.097 83.9279 152.461 82.5402C152.903 80.8615 151.085 81.11 149.691 81.5039Z" fill="#74A5F3"/>
<path d="M155.145 58.8819C154.714 59.0071 154.289 59.1548 153.873 59.3243C151.764 60.1727 149.843 61.5483 149.909 64.0753C150.024 68.3598 157.551 61.2998 157.915 59.9182C158.357 58.2335 156.539 58.4759 155.145 58.8819Z" fill="#74A5F3"/>
<path d="M186.203 57.476C185.772 57.5992 185.35 57.7469 184.936 57.9184C182.827 58.7668 180.906 60.1424 180.973 62.6694C181.088 66.9538 188.615 59.8939 188.978 58.5122C189.421 56.8094 187.603 57.0518 186.203 57.476Z" fill="#74A5F3"/>
<path d="M101.041 78.08C100.957 77.8731 100.862 77.6709 100.757 77.474C100.229 76.5044 99.4538 75.656 98.2297 75.8196C96.1572 76.1166 100.005 79.3708 100.696 79.4556C101.538 79.6011 101.32 78.7345 101.041 78.08Z" fill="#74A5F3"/>
<path d="M86.2491 62.3604C86.043 62.1846 85.837 62.0392 85.7279 61.9604C84.8129 61.3241 83.7402 60.912 82.7282 61.615C81.0072 62.827 85.9037 63.9905 86.5642 63.7723C87.352 63.4996 86.7884 62.827 86.2491 62.3604Z" fill="#74A5F3"/>
<path d="M108.114 69.796C108.03 69.5889 107.935 69.3866 107.829 69.19C107.295 68.2143 106.52 67.372 105.302 67.5356C103.229 67.8325 107.077 71.0807 107.768 71.1716C108.604 71.3231 108.386 70.4505 108.114 69.796Z" fill="#74A5F3"/>
<path d="M72.4383 56.1488C72.3553 55.9414 72.2602 55.7391 72.1535 55.5428C71.6262 54.5672 70.8506 53.7248 69.6264 53.8885C67.5539 54.1854 71.402 57.4396 72.0929 57.5245C72.9352 57.6699 72.717 56.8033 72.4383 56.1488Z" fill="#74A5F3"/>
<path d="M82.0797 77.377C81.8841 77.2584 81.6818 77.1511 81.4737 77.0559C80.4799 76.5711 79.3527 76.3287 78.4437 77.1771C76.9287 78.6254 81.9525 79.0375 82.5706 78.7163C83.3705 78.3285 82.6857 77.7467 82.0797 77.377Z" fill="#74A5F3"/>
<path d="M106.296 45.962C106.211 45.7551 106.116 45.5529 106.011 45.356C105.477 44.3864 104.702 43.538 103.484 43.7016C101.411 43.9986 105.259 47.2528 105.95 47.3376C106.786 47.4831 106.568 46.6165 106.296 45.962Z" fill="#74A5F3"/>
<path d="M129.087 70.5898C128.924 70.8019 128.784 71.008 128.711 71.1231C128.105 72.0564 127.736 73.1532 128.481 74.1531C129.742 75.8257 130.736 70.8868 130.487 70.2323C130.184 69.4203 129.53 70.0323 129.087 70.5898Z" fill="#74A5F3"/>
<path d="M138.783 83.3158C138.62 83.5279 138.48 83.734 138.407 83.8491C137.801 84.7824 137.432 85.8792 138.177 86.8791C139.438 88.5517 140.432 83.6128 140.183 82.9583C139.88 82.1463 139.226 82.7583 138.783 83.3158Z" fill="#74A5F3"/>
<path d="M152.285 50.204C152.079 50.2599 151.877 50.3266 151.679 50.404C150.643 50.7979 149.691 51.4524 149.697 52.6825C149.697 54.7732 153.454 51.4099 153.648 50.7373C153.86 49.8889 152.976 49.9858 152.285 50.204Z" fill="#74A5F3"/>
<path d="M128.881 42.5866C128.687 42.7744 128.517 42.9562 128.427 43.0593C127.693 43.8895 127.154 44.9136 127.742 45.9984C128.73 47.8164 130.463 43.1138 130.323 42.4351C130.148 41.5988 129.402 42.1018 128.881 42.5866Z" fill="#74A5F3"/>
<path d="M87.0974 85.352C87.2549 85.5026 87.4208 85.6443 87.5943 85.7762C88.473 86.461 89.5275 86.9276 90.5758 86.2792C92.3514 85.1823 87.5458 83.74 86.855 83.9279C86.0369 84.14 86.5823 84.849 87.0974 85.352Z" fill="#74A5F3"/>
<path d="M162.811 50.4282C162.544 50.4282 162.296 50.4282 162.157 50.4282C161.048 50.4949 159.945 50.8342 159.581 52.0099C158.975 54.0097 163.55 51.919 163.932 51.3372C164.399 50.6282 163.526 50.4585 162.811 50.4282Z" fill="#74A5F3"/>
</svg>
